<?xml version="1.0" encoding="UTF-8" standalone="no"?>
<!-- Created with Inkscape (http://www.inkscape.org/) -->

<svg
   xmlns:dc="http://purl.org/dc/elements/1.1/"
   xmlns:cc="http://creativecommons.org/ns#"
   xmlns:rdf="http://www.w3.org/1999/02/22-rdf-syntax-ns#"
   xmlns:svg="http://www.w3.org/2000/svg"
   xmlns="http://www.w3.org/2000/svg"
   xmlns:xlink="http://www.w3.org/1999/xlink"
   xmlns:sodipodi="http://sodipodi.sourceforge.net/DTD/sodipodi-0.dtd"
   xmlns:inkscape="http://www.inkscape.org/namespaces/inkscape"
   width="91.157784mm"
   height="58.137775mm"
   viewBox="0 0 323.00002 205.99999"
   id="svg2"
   version="1.1"
   inkscape:version="0.91 r13725"
   sodipodi:docname="farhip-easycard.svg"
   inkscape:export-filename="farhip-easycard.png"
   inkscape:export-xdpi="320"
   inkscape:export-ydpi="320">
  <defs
     id="defs4">
    <linearGradient
       inkscape:collect="always"
       id="linearGradient9674">
      <stop
         style="stop-color:#7c2a12;stop-opacity:1"
         offset="0"
         id="stop9676" />
      <stop
         style="stop-color:#1e0e05;stop-opacity:1"
         offset="1"
         id="stop9678" />
    </linearGradient>
    <linearGradient
       id="linearGradient9660"
       inkscape:collect="always">
      <stop
         id="stop9662"
         offset="0"
         style="stop-color:#ac3a19;stop-opacity:1" />
      <stop
         id="stop9664"
         offset="1"
         style="stop-color:#1f0e06;stop-opacity:1" />
    </linearGradient>
    <linearGradient
       gradientUnits="userSpaceOnUse"
       y2="599.50507"
       x2="609.28571"
       y1="368.07648"
       x1="398.57141"
       id="linearGradient8075"
       xlink:href="#linearGradient8069"
       inkscape:collect="always"
       gradientTransform="translate(1529.2619,337.81965)" />
    <linearGradient
       inkscape:collect="always"
       id="linearGradient10934">
      <stop
         style="stop-color:#ffffff;stop-opacity:1"
         offset="0"
         id="stop10936" />
      <stop
         style="stop-color:#c98510;stop-opacity:1"
         offset="1"
         id="stop10938" />
    </linearGradient>
    <filter
       id="filter11334"
       inkscape:label="Drop Shadow"
       style="color-interpolation-filters:sRGB">
      <feFlood
         id="feFlood11336"
         result="flood"
         flood-color="rgb(0,0,0)"
         flood-opacity="1" />
      <feComposite
         id="feComposite11338"
         result="composite1"
         operator="in"
         in2="SourceGraphic"
         in="flood" />
      <feGaussianBlur
         id="feGaussianBlur11340"
         result="blur"
         stdDeviation="3.7"
         in="composite1" />
      <feOffset
         id="feOffset11342"
         result="offset"
         dy="5"
         dx="5" />
      <feComposite
         id="feComposite11344"
         result="composite2"
         operator="over"
         in2="offset"
         in="SourceGraphic" />
    </filter>
    <filter
       id="filter11469"
       inkscape:label="Drop Shadow"
       style="color-interpolation-filters:sRGB">
      <feFlood
         id="feFlood11471"
         result="flood"
         flood-color="rgb(0,0,0)"
         flood-opacity="1" />
      <feComposite
         id="feComposite11473"
         result="composite1"
         operator="in"
         in2="SourceGraphic"
         in="flood" />
      <feGaussianBlur
         id="feGaussianBlur11475"
         result="blur"
         stdDeviation="3.7"
         in="composite1" />
      <feOffset
         id="feOffset11477"
         result="offset"
         dy="5"
         dx="5" />
      <feComposite
         id="feComposite11479"
         result="composite2"
         operator="over"
         in2="offset"
         in="SourceGraphic" />
    </filter>
    <radialGradient
       r="87.670425"
       fy="636.57196"
       fx="-107.56053"
       cy="636.57196"
       cx="-107.56053"
       gradientTransform="matrix(-1.4628723,-1.5251838,0.25088829,-0.24063823,-172.45588,574.35334)"
       gradientUnits="userSpaceOnUse"
       id="radialGradient11589"
       xlink:href="#linearGradient10934"
       inkscape:collect="always" />
    <filter
       id="filter11607"
       inkscape:label="Drop Shadow"
       style="color-interpolation-filters:sRGB">
      <feFlood
         id="feFlood11609"
         result="flood"
         flood-color="rgb(0,0,0)"
         flood-opacity="1" />
      <feComposite
         id="feComposite11611"
         result="composite1"
         operator="in"
         in2="SourceGraphic"
         in="flood" />
      <feGaussianBlur
         id="feGaussianBlur11613"
         result="blur"
         stdDeviation="3.7"
         in="composite1" />
      <feOffset
         id="feOffset11615"
         result="offset"
         dy="5"
         dx="5" />
      <feComposite
         id="feComposite11617"
         result="composite2"
         operator="over"
         in2="offset"
         in="SourceGraphic" />
    </filter>
    <radialGradient
       inkscape:collect="always"
       xlink:href="#linearGradient10934"
       id="radialGradient8860"
       gradientUnits="userSpaceOnUse"
       gradientTransform="matrix(-1.4628723,-1.5251838,0.25088829,-0.24063823,-252.763,574.35335)"
       cx="-107.56053"
       cy="636.57196"
       fx="-107.56053"
       fy="636.57196"
       r="87.670425" />
    <radialGradient
       inkscape:collect="always"
       xlink:href="#linearGradient9674"
       id="radialGradient9658"
       cx="1903.3295"
       cy="864.00073"
       fx="1903.3295"
       fy="864.00073"
       r="101.96575"
       gradientUnits="userSpaceOnUse" />
    <radialGradient
       inkscape:collect="always"
       xlink:href="#linearGradient9660"
       id="radialGradient9670"
       gradientUnits="userSpaceOnUse"
       cx="1903.3295"
       cy="864.00073"
       fx="1903.3295"
       fy="864.00073"
       r="101.96575" />
    <radialGradient
       inkscape:collect="always"
       xlink:href="#linearGradient9674"
       id="radialGradient9684"
       gradientUnits="userSpaceOnUse"
       cx="1903.3295"
       cy="864.00073"
       fx="1903.3295"
       fy="864.00073"
       r="101.96575" />
    <radialGradient
       inkscape:collect="always"
       xlink:href="#linearGradient10934"
       id="radialGradient9686"
       gradientUnits="userSpaceOnUse"
       gradientTransform="matrix(-1.4628723,-1.5251838,0.25088829,-0.24063823,-173.46604,667.28737)"
       cx="-107.56053"
       cy="636.57196"
       fx="-107.56053"
       fy="636.57196"
       r="87.670425" />
    <radialGradient
       inkscape:collect="always"
       xlink:href="#linearGradient10934"
       id="radialGradient9692"
       gradientUnits="userSpaceOnUse"
       gradientTransform="matrix(-1.4628723,-1.5251838,0.25088829,-0.24063823,-52.247725,574.35334)"
       cx="-107.56053"
       cy="636.57196"
       fx="-107.56053"
       fy="636.57196"
       r="87.670425" />
    <radialGradient
       inkscape:collect="always"
       xlink:href="#linearGradient10934"
       id="radialGradient10038"
       gradientUnits="userSpaceOnUse"
       gradientTransform="matrix(-1.4628723,-1.5251838,0.25088829,-0.24063823,-252.763,863.25698)"
       cx="-107.56053"
       cy="636.57196"
       fx="-107.56053"
       fy="636.57196"
       r="87.670425" />
  </defs>
  <sodipodi:namedview
     id="base"
     pagecolor="#ffffff"
     bordercolor="#666666"
     borderopacity="1.0"
     inkscape:pageopacity="0.0"
     inkscape:pageshadow="2"
     inkscape:zoom="2.8"
     inkscape:cx="48.97289"
     inkscape:cy="51.06008"
     inkscape:document-units="px"
     inkscape:current-layer="layer1"
     showgrid="false"
     inkscape:window-width="1855"
     inkscape:window-height="1056"
     inkscape:window-x="65"
     inkscape:window-y="24"
     inkscape:window-maximized="1"
     fit-margin-top="0"
     fit-margin-left="0"
     fit-margin-right="0"
     fit-margin-bottom="0" />
  <metadata
     id="metadata7">
    <rdf:RDF>
      <cc:Work
         rdf:about="">
        <dc:format>image/svg+xml</dc:format>
        <dc:type
           rdf:resource="http://purl.org/dc/dcmitype/StillImage" />
        <dc:title />
      </cc:Work>
    </rdf:RDF>
  </metadata>
  <g
     inkscape:label="Layer 1"
     inkscape:groupmode="layer"
     id="layer1"
     transform="translate(-198.5,-482.21936)">
    <circle
       style="opacity:1;fill:#290e06;fill-opacity:1;fill-rule:nonzero;stroke:url(#linearGradient8075);stroke-width:10;stroke-linecap:round;stroke-linejoin:round;stroke-miterlimit:4;stroke-dasharray:none;stroke-dashoffset:53;stroke-opacity:1"
       id="path8066"
       cx="2035.6904"
       cy="823.7533"
       r="0" />
    <g
       transform="translate(1046.2412,-103.21454)"
       id="g8607" />
    <g
       transform="matrix(0,1,-1,0,2868.5244,8.93281)"
       id="g8613" />
    <g
       id="g8619"
       transform="matrix(0.70710678,0.70710678,-0.70710678,0.70710678,1980.6093,-424.54808)" />
    <g
       id="g8648"
       transform="translate(-672.92857,482.21935)">
      <path
         d="m 16.921372,0.4999979 292.391758,0 c 6.55198,0 13.18688,6.5940592 13.18688,13.2298441 l 0,175.243298 c 0,9.89108 -6.6349,16.52686 -13.18688,16.52686 l -292.391758,0 c -9.8694209,0 -16.42137745,-6.63578 -16.42137745,-16.52686 l 0,-175.243298 c 0,-6.6357849 6.55195655,-13.2298441 16.42137745,-13.2298441 z"
         id="path3014"
         inkscape:connector-curvature="0"
         style="fill:#ffffff;stroke:#b3b3b3;stroke-width:0.9999879;stroke-miterlimit:4;stroke-dasharray:none" />
      <path
         sodipodi:nodetypes="cccccscc"
         style="fill:#e3007f"
         inkscape:connector-curvature="0"
         id="path3"
         d="m 101.95947,73.762087 c 9.97313,-3.296561 20.90333,13.227964 24.15817,19.862806 3.33828,6.593117 3.33828,13.186237 6.63484,19.821077 3.29656,6.59312 13.22796,6.59312 16.52452,16.52453 6.63486,26.49766 -23.15936,56.1667 -42.93872,76.0295 l -89.299189,0 C 10.404239,206 7.1076773,202.70345 3.7693959,199.36516 20.335652,149.74986 62.317314,73.762087 101.95947,73.762087" />
      <path
         style="fill:#0e9f35"
         inkscape:connector-curvature="0"
         id="path5"
         d="m 266.30424,80.281874 c 20.00532,0 39.96862,10.039108 56.69576,20.120566 l 0,60.40406 -6.72447,0 c -39.9266,-3.30402 -136.54897,13.42782 -159.79045,-3.30402 9.96064,-30.28674 26.64576,-36.97949 46.60905,-57.10004 16.60106,-16.816557 29.92394,-20.120566 63.21011,-20.120566" />
      <path
         sodipodi:nodetypes="cccacccscsc"
         style="fill:#f6b046"
         inkscape:connector-curvature="0"
         id="path7"
         d="m 93.135985,0 c 6.36306,6.7384942 10.644715,13.519629 13.805985,16.888876 3.24232,10.150382 24.29147,36.577164 14.68607,46.684895 0,0 -2.09418,1.12555 -3.24232,1.224974 -2.16385,0.187381 -6.40361,-1.224974 -6.40361,-1.224974 C 99.134392,56.835276 83.649294,56.84849 70.8421,52.863964 52.149516,45.326438 22.652983,39.386975 0.19986701,35.975088 L 1.0922627e-4,13.519629 C -0.0153327,11.783749 1.6092524,9.6399757 3.1613781,6.7384942 6.4037003,3.3692469 9.605502,0 16.049634,0 Z" />
      <path
         style="fill:#007dc5"
         inkscape:connector-curvature="0"
         id="path9"
         d="m 261.13632,0 c -13.51608,16.831332 -23.63188,30.304896 -30.34741,37.062926 -6.67302,3.357767 -13.47357,3.357767 -20.2316,10.073302 -3.31526,3.357767 -3.31526,6.758041 -6.71554,10.115797 0,3.357767 -6.75803,3.357767 -6.75803,6.715535 -10.0733,13.473562 -20.1466,30.347401 -26.90463,43.77846 -6.75804,-3.35777 -3.40027,-6.71553 -6.75804,-10.115798 0,-3.315261 -6.71552,-3.315261 -6.71552,-6.715524 C 146.58973,70.725599 153.34778,26.94713 160.0633,6.7155346 160.0633,3.3577672 163.42107,0 163.42107,0 l 97.71525,0 z" />
      <path
         style="fill:none;stroke:#b3b3b3;stroke-width:0.9999879;stroke-miterlimit:4;stroke-dasharray:none"
         inkscape:connector-curvature="0"
         id="path11"
         d="m 16.921372,0.4999979 292.391758,0 c 6.55198,0 13.18688,6.5940592 13.18688,13.2298441 l 0,175.243298 c 0,9.89108 -6.6349,16.52686 -13.18688,16.52686 l -292.391758,0 c -9.8694209,0 -16.42137745,-6.63578 -16.42137745,-16.52686 l 0,-175.243298 c 0,-6.6357849 6.55195655,-13.2298441 16.42137745,-13.2298441 z" />
      <g
         transform="matrix(0.08033827,0,0,0.08033827,255.52537,61.038942)"
         id="g4813">
        <path
           d="m -92.829998,64.86 0,0 c 5.1,7.77 10.16,17.72 15.17,29.83 l -9.78,6.4 c -4.01,-11.53 -8.44,-21.47 -13.290002,-29.83 m -33.35,-6.9 0,0 c 7.36,4.68 14.55,10.74 21.57,18.18 l -9.78,6.25 c -5.86,-6.92 -12.38,-12.93 -19.56,-18.05 l 7.77,-6.38 z m -27.83,-2.01 0,0 13.16,1.63 c 1.67,0.17 2.51,0.8 2.51,1.88 0,1.08 -0.84,2.26 -2.51,3.52 -1.25,0.91 -1.88,2.32 -1.88,4.26 l 0,11.28 c 0,3.43 0.55,5.97 1.63,7.65 1.09,1.43 3.48,2.13 7.15,2.13 l 22.06,0 c 4.27,0 7.44,-0.66 9.53,-1.99 2.34,-1.25 4.22,-4.98 5.64,-11.17 l 10.790002,4.9 c -2.18,8.26 -4.85,13.57 -8.030002,15.92 -2.76,2.09 -6.14,3.13 -10.15,3.13 l -34.74,0 c -5,0 -8.89,-1.58 -11.65,-4.76 -2.34,-3.01 -3.51,-7.28 -3.51,-12.78 l 0,-25.6 z m -15.17,4.89 0,0 8.65,4.4 c 1.42,0.49 2.13,0.99 2.13,1.48 0,0.84 -0.67,1.5 -2.01,2.01 -3.84,11.78 -8.1,21.56 -12.79,29.34 l -9.77,-5.76 c 5.27,-8.86 9.86,-19.34 13.79,-31.47 m 56.17,-49.9 0,0 c 2.25,7.45 5.84,13.42 10.78,17.93 0.59,0.5 1.17,1.01 1.75,1.51 2.51,-2.6 4.6,-5.49 6.27,-8.65 1.59,-2.85 2.930002,-6.45 4.010002,-10.79 l -22.810002,0 z m -40,-4.39 0,0 9.91,0.88 c 1.84,0.09 2.76,0.59 2.76,1.5 0,0.59 -0.67,1.43 -2.01,2.51 l 0,8.41 c 5.18,-4.53 9.32,-9.08 12.41,-13.67 3.35,-4.67 6.4,-10.94 9.15,-18.81 l 10.66,3.63 c 1.09,0.42 1.64,1 1.64,1.76 0,0.43 -1.3,0.92 -3.9,1.5 -0.75,2.17 -1.59,4.32 -2.5,6.41 l 43.620002,0 0,10.26 -7.89,0 c -1.09,6.2 -2.67,11.21 -4.77,15.05 -1.92,4.01 -4.43,7.7 -7.52,11.04 5.93,3.51 13.33,7.05 22.19,10.65 l -9.4,9.78 c -8.61,-4.18 -15.880002,-8.4 -21.820002,-12.66 -1.5,0.92 -3.09,1.85 -4.76,2.75 -5.52,2.85 -12.62,5.82 -21.32,8.91 l -9.4,-9.78 c 8.36,-2.09 14.67,-4.06 18.93,-5.91 2.76,-1.07 5.27,-2.29 7.53,-3.62 -0.83,-0.92 -1.63,-1.81 -2.39,-2.65 -4.67,-4.92 -8.23,-11.56 -10.65,-19.92 -3.18,4.35 -6.65,8.36 -10.41,12.03 l -9.4,-6.02 0,28.09 -10.66,0 0,-42.12 z m -6.89,-19.17 9.65,4.38 c 1.08,0.42 1.63,0.92 1.63,1.51 0,1.33 -1,2.33 -3.01,3.01 -3.09,5.18 -6.02,9.69 -8.78,13.54 l 0,49.16 -10.78,0 0,-36.37 c -2.01,2.08 -4.13,4.21 -6.4,6.39 l -7.76,-7.76 c 5.68,-5.2 10.48,-10.46 14.42,-15.81 3.67,-4.75 7.35,-10.78 11.03,-18.05"
           id="path3070"
           inkscape:connector-curvature="0"
           style="clip-rule:evenodd;fill:#231815;fill-rule:evenodd" />
        <path
           d="m 68.670002,28.63 0,0 c 0.84,0 1.58,0.25 2.25,0.75 l 4.77,2.89 c 0.59,0.41 0.88,0.83 0.88,1.25 0,0.84 -0.66,1.63 -2.01,2.38 l -13.16,15.41 0,7.15 15.18,0 0,9.28 -15.18,0 0,16.68 c 0,3.93 -1.95,6.19 -5.89,6.77 -2.85,0.42 -8.41,0.63 -16.67,0.63 l -3.89,-10.77 12.15,0 c 2.69,0 4.02,-1.13 4.02,-3.39 l 0,-9.92 -18.69,0 0,-9.28 18.69,0 0,-12.29 4.14,0.88 6.27,-8.65 -23.69,0 0,-9.28 28.96,0 m -21.59,-36.22 0,0 9.4,3.38 c 1.26,0.35 1.88,0.84 1.88,1.5 0,0.35 -0.33,0.8 -1.01,1.39 -0.75,0.33 -2.13,2.89 -4.13,7.65 -0.42,0.92 -0.84,1.8 -1.26,2.64 l 24.95,0 0,9.4 -29.84,0 c -1.84,3.18 -3.81,6.27 -5.9,9.28 l -10.27,-5.89 c 6.61,-8.12 12,-17.9 16.18,-29.35 m -38.74,-0.51 0,0 9.53,0.63 c 1.85,0.1 2.76,0.52 2.76,1.25 0,0.67 -0.67,1.68 -2,3.03 l 0,11.28 13.28,0 0,9.78 -19.18,0 c 0,4.61 -0.05,8.83 -0.12,12.67 l 17.8,0 c 0,24.48 -0.54,39.95 -1.63,46.39 -0.66,6.18 -2.14,10.4 -4.38,12.67 -2.43,2.42 -6.48,3.63 -12.17,3.63 l -4.38,-9.78 c 5.44,0 8.66,-0.67 9.65,-2.01 0.92,-1.08 1.68,-3.72 2.27,-7.9 0.76,-4.26 1.17,-15.46 1.25,-33.59 l -8.65,0 c -0.25,6.44 -0.62,11.7 -1.12,15.8 -0.92,7.27 -1.97,12.95 -3.14,17.04 -1.67,5.95 -3.72,10.95 -6.14000002,15.05 L -9.179998,82.94 c 2.92,-4.68 5.14,-9.49 6.65,-14.41 1.33,-4.85 2.37999998,-10.55 3.12999998,-17.05 C 1.190002,45.54 1.520002,34.51 1.600002,18.37 l -10.78,0 0,-9.78 15.67,0 0,-16.2 z m -37.73,55.3 0,0 19.18,0 0,37.6 c 2.34,3.94 5.97,6.69 10.9,8.28 5.6,1.76 14.22,2.65 25.83,2.65 19.38,0 37.15,-0.52 53.28,-1.52 l -3.88,12.29 -49.4,0 c -10.19,0 -18.39,-0.75 -24.57000002,-2.26 -6.43999998,-1.51 -11.48999998,-4.06 -15.16999998,-7.66 -1.59,-1.42 -2.93,-3.01 -4.01,-4.76 l -9.66,10.79 c -0.58,1.24 -1.26,1.88 -2.01,1.88 -0.83,0 -1.5,-0.55 -2,-1.64 l -6.27,-8.65 c 5.94,-3.42 10.99,-6.89 15.17,-10.39 l 0,-26.84 -7.39,0 0,-9.77 z m 0.99,-29.84 0,0 c 7.03,3.51 12.92,7.28 17.68,11.28 l -6.89,7.28 c -5.51,-4.09 -11.58,-7.85 -18.18,-11.28 l 7.39,-7.28 z m 2.89,-22.57 c 6.85,3.85 12.57,7.94 17.18,12.29 l -6.9,7.28 c -5.35,-4.51 -11.2,-8.56 -17.55,-12.16 l 7.27,-7.41 z"
           id="path3072"
           inkscape:connector-curvature="0"
           style="clip-rule:evenodd;fill:#231815;fill-rule:evenodd" />
        <path
           d="m 161.68,-6.73 9.91,0.88 c 1.84,0.18 2.75,0.71 2.75,1.64 0,0.49 -0.63,1.33 -1.88,2.5 l 0,10.78 40.13,0 0,9.79 -40.13,0 0,16.54 56.3,0 0,10.78 -56.3,0 0,11.04 c 15.8,7.36 29.18,15.13 40.13,23.32 l -7.4,7.77 C 194.99,81.38 184.08,74.94 172.47,69 l 0,38.49 -10.78,0 0,-61.31 -45.63,0 0,-10.78 45.63,0"
           id="path3074"
           inkscape:connector-curvature="0"
           style="clip-rule:evenodd;fill:#231815;fill-rule:evenodd" />
        <path
           d="m 313.02,36.4 0,0 11.28,4.5 c 1.59,0.52 2.38,1.15 2.38,1.88 0,0.6 -0.96,1.6 -2.88,3.02 -5.1,13.2 -11.75,27.71 -19.93,43.51 15.63,-0.93 30.55,-2.39 44.76,-4.39 -4.52,-6.68 -9.2,-12.86 -14.04,-18.54 l 8.27,-6.9 c 9.95,10.45 19.74,23.82 29.34,40.13 L 361.42,107 c -2.17,-4.36 -4.42,-8.49 -6.77,-12.41 l -71.08,8.54 c -1.42,1.91 -2.72,2.87 -3.89,2.87 -1.42,0 -2.22,-0.63 -2.39,-1.88 l -4.5,-13.79 c 6.44,-0.08 12.78,-0.24 19.05,-0.5 3.85,-7.44 7.02,-14.25 9.53,-20.43 4.66,-11.14 8.55,-22.13 11.65,-33 m -6.89,-37.73 0,0 41.62,0 c 1.33,13.54 5.06,24.44 11.16,32.72 4.42,5.84 11.99,12.91 22.69,21.19 l -11.28,7.89 C 358.7,51.1 350.3,42.25 345.11,33.89 340.69,27.54 337.67,19.26 336.09,9.07 l -29.96,0 0,-10.4 z m -11.79,12.79 12.16,2 c 1.33,0.42 2,1.04 2,1.88 0,1.09 -1.12,2.09 -3.38,3.01 -3.26,9.53 -6.6,16.85 -10.03,21.94 -4.18,6.27 -10.45,12.83 -18.81,19.68 l -9.4,-7.89 c 8.19,-6.02 14.34,-12.32 18.44,-18.94 3.25,-4.51 6.26,-11.74 9.02,-21.68"
           id="path3076"
           inkscape:connector-curvature="0"
           style="clip-rule:evenodd;fill:#231815;fill-rule:evenodd" />
        <path
           d="m 441.28,75.14 0,0 32.34,0 0,-19.56 -32.34,0 M 430,45.3 l 0,0 54.39,0 0,40.14 -43.12,0 0,8.26 -11.28,0 0,-48.4 z m -4.39,-23.06 0,0 64.56,0 0,10.28 -64.56,0 0,-10.28 z m -5.89,-23.07 96.53,0 0,94.53 c 0,5.86 -3.43,9.61 -10.28,11.29 -5.26,1.33 -10.53,2 -15.8,2 l -4.38,-11.79 13.16,-0.23 c 3.67,-0.18 5.52,-1.73 5.52,-4.66 l 0,-80.36 -84.75,0 0,-10.78 z"
           id="path3078"
           inkscape:connector-curvature="0"
           style="clip-rule:evenodd;fill:#231815;fill-rule:evenodd" />
        <polyline
           points="370.329,340.463 365.93,340.463 365.93,333.132   369.889,333.132 369.889,334.117 367.396,334.117 367.396,336.117 369.836,336.117 369.836,337.122 367.396,337.122   367.396,339.479 370.329,339.479 "
           id="polyline3080"
           transform="matrix(9.9999999,0,0,9.9999999,-3851.96,-3192.26)"
           style="clip-rule:evenodd;fill:#231815;fill-rule:evenodd" />
        <path
           d="m -111.02,189.49 0,0 -7.63,-22.37 -8.45,22.37 m 36.310002,22.88 -12.520002,0 -5.39,-15.84 -20.89,0 -6.06,15.84 -9.62,0 23.72,-58.04 8.95,0 21.810002,58.04 z"
           id="path3082"
           inkscape:connector-curvature="0"
           style="clip-rule:evenodd;fill:#231815;fill-rule:evenodd" />
        <path
           d="m -50.339998,197.12 c 0,4.76 -1.87,8.65 -5.63,11.68 -3.76,3.05 -8.62,4.57 -14.59,4.57 -6.3,0 -12.05,-1.83 -17.25,-5.47 l 4.39,-6.97 c 4.1,3.1 8.08,4.66 11.94,4.66 2.71,0 4.93,-0.7 6.63,-2.08 1.72,-1.45 2.58,-3.31 2.58,-5.64 0,-2.75 -2.13,-6.04 -6.38,-9.86 -1.99,-1.76 -5.09,-4.34 -9.29,-7.71 -4.81,-3.82 -7.21,-7.98 -7.21,-12.53 0,-4.25 1.73,-7.71 5.22,-10.36 3.54,-2.71 8.04,-4.05 13.52,-4.05 5.29,0 10.22,1.56 14.75,4.73 l -4.48,6.38 c -3.26,-2.21 -6.38,-3.32 -9.36,-3.32 -2.27,0 -4.1,0.56 -5.48,1.66 -1.33,1.11 -1.99,2.59 -1.99,4.4 0,2.21 1.77,4.79 5.31,7.79 1.27,1.04 4.25,3.54 8.95,7.45 5.58,4.52 8.37,9.42 8.37,14.67"
           id="path3084"
           inkscape:connector-curvature="0"
           style="clip-rule:evenodd;fill:#231815;fill-rule:evenodd" />
        <polyline
           points="385.452,334.709 383.545,338.05 383.545,340.463   382.384,340.463 382.384,338.05 380.66,334.775 381.879,334.585 383.081,337.238 384.466,334.585 "
           id="polyline3086"
           transform="matrix(9.9999999,0,0,9.9999999,-3851.96,-3192.26)"
           style="clip-rule:evenodd;fill:#231815;fill-rule:evenodd" />
        <path
           d="m 67.340002,143.67 -4.72,9.11 c -5.38,-3.07 -10.63,-4.6 -15.82,-4.6 -7.88,0 -14.27,2.5 -19.16,7.54 -4.89,4.96 -7.33,11.55 -7.33,19.79 0,8.03 2.44,14.66 7.33,19.9 4.95,5.22 11.51,7.84 19.7,7.84 5.45,0 10.61,-1.33 15.49,-3.97 l 3.88,9 c -6.49,3.56 -13.68,5.33 -21.57,5.33 -11.8,0 -21.5,-3.48 -29.11,-10.47 -7.61,-6.97 -11.42,-16 -11.42,-27.01 0,-11.04 3.87,-20.18 11.62,-27.44 7.75,-7.26 17.52,-10.89 29.33,-10.89 7.6,0.01 14.86,1.96 21.78,5.87"
           id="path3088"
           inkscape:connector-curvature="0"
           style="clip-rule:evenodd;fill:#231815;fill-rule:evenodd" />
        <path
           d="m 104.88,189.49 0,0 -7.629998,-22.37 -8.46,22.37 m 36.319998,22.88 -12.52,0 -5.39,-15.84 -20.889998,0 -6.04,15.84 -9.63,0 23.71,-58.04 8.949998,0 21.81,58.04 z"
           id="path3090"
           inkscape:connector-curvature="0"
           style="clip-rule:evenodd;fill:#231815;fill-rule:evenodd" />
        <path
           d="m 159.18,170.85 0,0 c 0,-3.5 -1.08,-5.99 -3.23,-7.48 -1.48,-1.04 -4.02,-1.56 -7.64,-1.56 l -4.46,0 0,19.8 3.49,0 c 4.2,0 7.21,-0.94 9.03,-2.81 1.88,-1.95 2.81,-4.6 2.81,-7.95 m 15.68,40.27 -12.11,2.25 -11.93,-24.55 -6.96,0 0,23.55 -11.61,0 0,-58.04 16.99,0 c 3.71,0 6.42,0.14 8.13,0.42 3.05,0.44 5.55,1.38 7.54,2.81 3.93,2.89 5.9,7.03 5.9,12.44 0,7.01 -3.38,12.5 -10.12,16.42 l 14.17,24.7 z"
           id="path3092"
           inkscape:connector-curvature="0"
           style="clip-rule:evenodd;fill:#231815;fill-rule:evenodd" />
        <path
           d="m 222.61,182.36 0,0 c 0,-8.85 -2.96,-14.81 -8.88,-17.91 -2.98,-1.53 -7.63,-2.31 -13.93,-2.31 l -5.06,0 0,42.44 4.73,0 c 4.32,0 7.66,-0.29 10.03,-0.92 2.38,-0.66 4.54,-1.79 6.47,-3.4 4.43,-3.76 6.64,-9.72 6.64,-17.9 m 12.43,-0.58 c 0,12.16 -4.73,20.89 -14.18,26.19 -5.24,2.93 -12.49,4.39 -21.72,4.39 l -16,0 0,-58.04 16,0 c 5.47,0 9.79,0.34 12.94,1 2.48,0.52 5.17,1.47 8.04,2.9 9.95,4.93 14.92,12.78 14.92,23.56"
           id="path3094"
           inkscape:connector-curvature="0"
           style="clip-rule:evenodd;fill:#231815;fill-rule:evenodd" />
        <path
           d="m 334.43,143.67 -4.71,9.11 c -5.37,-3.07 -10.65,-4.6 -15.82,-4.6 -7.89,0 -14.28,2.5 -19.16,7.54 -4.89,4.96 -7.32,11.55 -7.32,19.79 0,8.03 2.43,14.66 7.32,19.9 4.95,5.22 11.51,7.84 19.69,7.84 5.44,0 10.61,-1.33 15.49,-3.97 l 3.89,9 c -6.49,3.56 -13.69,5.33 -21.57,5.33 -11.8,0 -21.51,-3.48 -29.12,-10.47 -7.61,-6.97 -11.42,-16 -11.42,-27.01 0,-11.04 3.88,-20.18 11.62,-27.44 7.75,-7.26 17.54,-10.89 29.34,-10.89 7.6,0.01 14.86,1.96 21.77,5.87"
           id="path3096"
           inkscape:connector-curvature="0"
           style="clip-rule:evenodd;fill:#231815;fill-rule:evenodd" />
        <path
           d="m 386.9,183.53 0,0 c 0,-6.9 -1.49,-12.31 -4.48,-16.18 -2.91,-3.87 -6.99,-5.8 -12.18,-5.8 -5.42,0 -9.6,2.38 -12.53,7.13 -2.48,4.03 -3.72,8.93 -3.72,14.69 0,5.9 1.24,10.82 3.72,14.76 2.99,4.69 7.25,7.04 12.77,7.04 5.03,0 9.02,-1.94 11.93,-5.8 2.99,-3.93 4.49,-9.22 4.49,-15.84 m 12.52,-0.75 c 0,8.73 -2.63,15.96 -7.88,21.72 -5.37,5.92 -12.37,8.87 -21.05,8.87 -8.62,0 -15.64,-2.93 -21.05,-8.79 -5.25,-5.69 -7.88,-12.91 -7.88,-21.64 0,-8.67 2.76,-15.78 8.29,-21.31 5.53,-5.53 12.61,-8.28 21.23,-8.28 8.07,0 14.81,2.81 20.22,8.46 5.4,5.57 8.12,12.56 8.12,20.97"
           id="path3098"
           inkscape:connector-curvature="0"
           style="clip-rule:evenodd;fill:#231815;fill-rule:evenodd" />
        <path
           d="m 437.31,170.85 0,0 c 0,-3.5 -1.07,-5.99 -3.24,-7.48 -1.49,-1.04 -4.03,-1.56 -7.63,-1.56 l -4.47,0 0,19.8 3.48,0 c 4.21,0 7.22,-0.94 9.04,-2.81 1.88,-1.95 2.82,-4.6 2.82,-7.95 m 15.66,40.27 -12.11,2.25 -11.92,-24.55 -6.97,0 0,23.55 -11.6,0 0,-58.04 16.99,0 c 3.7,0 6.42,0.14 8.13,0.42 3.04,0.44 5.56,1.38 7.54,2.81 3.93,2.89 5.89,7.03 5.89,12.44 0,7.01 -3.37,12.5 -10.11,16.42 l 14.16,24.7 z"
           id="path3100"
           inkscape:connector-curvature="0"
           style="clip-rule:evenodd;fill:#231815;fill-rule:evenodd" />
        <path
           d="m 500.65,170.67 c 0,5.85 -2.21,10.61 -6.64,14.26 -4.37,3.59 -10.14,5.41 -17.31,5.47 l 0,-7.13 c 8.12,-0.61 12.18,-4.41 12.18,-11.44 0,-4.31 -1.62,-7.22 -4.89,-8.7 -1.48,-0.66 -4.14,-1 -7.95,-1 l -3.24,0 0,50.23 -11.51,0 0,-58.04 15.33,0 c 4.09,0 6.99,0.11 8.7,0.34 3.2,0.37 5.92,1.27 8.13,2.65 4.79,3 7.2,7.45 7.2,13.36"
           id="path3102"
           inkscape:connector-curvature="0"
           style="clip-rule:evenodd;fill:#231815;fill-rule:evenodd" />
        <path
           d="m 515.49,206.81 c 0,1.78 -0.62,3.27 -1.83,4.48 -1.22,1.17 -2.71,1.75 -4.48,1.75 -1.77,0 -3.26,-0.58 -4.47,-1.75 -1.22,-1.21 -1.83,-2.69 -1.83,-4.39 0,-1.93 0.61,-3.48 1.83,-4.64 1.21,-1.22 2.79,-1.83 4.73,-1.83 1.71,0 3.14,0.63 4.31,1.9 1.17,1.23 1.74,2.71 1.74,4.48"
           id="path3104"
           inkscape:connector-curvature="0"
           style="clip-rule:evenodd;fill:#231815;fill-rule:evenodd" />
      </g>
      <g
         transform="matrix(0.08133965,0,0,0.08133965,245.42762,28.07066)"
         id="g4872">
        <path
           d="m 123.53547,164.2333 c 20.98,-1.14 40.7,41.28 49.45,53.6 5.68,8.05 11.32,10.6 17.75,18.1 2.17,2.55 13.15,8.33 16.68,8.69 21.12,2.17 34.47,-4.92 44.47,-7.66 13.48,-3.65 21.86,-3.95 33.27,-10.64 10.83,-6.33 92.84,-39.73 97.23,-12.53 3.43,21.03 -55.65,55.05 -68.88,63.65 -2.87,1.84 -3.82,6.46 -7.02,7.93 -14.72,6.61 -71.75,28.29 -91.39,23.5 -29.16,-7.12 -66.03,-71.55 -78.02,-96.17 -1.97,-3.99 -28.74,-47.69 -13.54,-48.47"
           id="path3054"
           inkscape:connector-curvature="0"
           style="fill:#e3007f" />
        <path
           d="m 291.02547,80.823298 c 8.69,-0.4 15.14,10.07 17.96,15.75 1.75,3.580002 1.09,8.660002 3.19,11.930002 3.42,5.24 10.91,6.57 12.55,13.48 4.86,20.62 -28.2,48.41 -37.58,57.9 -5.38,5.4 -13.53,22.05 -20.57,24.51 -3.89,1.31 -7.25,-2.82 -11.25,-0.41 -15.23,8.72 -19,17.79 -34.55,14.53 -14.85,-3.12 -6.21,-24.65 -1.84,-41.21 8.79,-33.09 43.14,-95.240002 72.09,-96.480002"
           id="path3056"
           inkscape:connector-curvature="0"
           style="fill:#e3007f" />
        <path
           d="m 393.63547,17.873298 c 30.79,1.42 64.29,25.98 75.98,42.87 4.21,6.11 11.96,19.59 7.38,26.75 -15.32,-2.46 -30.24,-13.65 -47.88,-14.88 -28.29,-1.94 -95.41,9.82 -113.27,-1.1 7.3,-21.37 20.2,-26.84 33.21,-39.75 12.02,-11.98 21.59,-14.94 44.58,-13.89"
           id="path3058"
           inkscape:connector-curvature="0"
           style="fill:#5bb431" />
        <path
           d="m 187.61547,4.8332981 c 28.93,4.81 53.52,24.0299999 62.46,39.4399999 3.01,5.25 16.03,24.29 9.29,30.64 -0.75,0.72 -2.18,0.31 -3.38,0.55 0.56,0.2 -3.1,-0.72 -3.1,-0.72 -10.24,-3.39 -18.89,-4.62 -28.94,-7.66 -17.71,-5.51 -42.9,-11.26 -60.56,-12.02 -6.11,-0.23 -13.46,2.11 -19.11,1.49 -6.16,-0.67 -23.83,-8.69 -31.98,-11.77 -1.34,-0.51 -4.36,-2.39 -5.62,-3.4 -1.64,-1.23 -3.93,-4.54 -4.14,-6.36 -1.31,-11.86 19.79,-23.44 28.04,-27.0999999 12.57,-5.63 38.53,-6.15 57.04,-3.09"
           id="path3060"
           inkscape:connector-curvature="0"
           style="fill:#f6b046" />
        <path
           d="m 459.66547,-7.5767019 c 31.58,-1.21 86.99,67.9799999 78.36,94.7799999 -12.31,38.220002 -42.8,48.050002 -76.63,59.930002 -5.96,2.07 -18.95,9.35 -25.01,8.76 -4.28,-0.46 -4.43,-5.52 -7.39,-6.43 -4.71,-1.39 -9.44,3.19 -14.79,2.58 3.12,-7.92 25.68,-24.08 33.01,-27.49 2.99,-1.48 21.85,-12.52 29.16,-17.58 15.31,-10.530002 17.98,-8.180002 28.27,-24.910002 1.89,-3.05 4.97,-8.86 3.64,-13.72 -3.28,-11.59 -29.89,-28.44 -38.8,-37.83 -4.63,-4.8 -7.69,-11.04 -11.89,-16.16 -4,-4.8999999 -12.26,-21.3399999 2.07,-21.9299999"
           id="path3062"
           inkscape:connector-curvature="0"
           style="fill:#5bb431" />
        <path
           d="m 134.28547,-58.616702 c 6.24,-0.09 9.79,4.36 12.91,7.2 25.63,23.41 -44.67,54.5700001 -56.070002,59.8700001 -1.76,0.86 -3.68,1.46 -5.41,2.4099999 -3.57,1.87 -6.68,4.14 -9.69,6.7 -3.48,2.94 -6.15,6.08 -8.96,9.98 -1.84,2.44 -4.24,5.34 -3.97,10.56 0.99,17.47 28.94,27.85 37.300002,41.23 8.8,14.1 -5.900002,11.9 -15.520002,7.23 -9.94,-4.93 -23.42,-12.08 -31.36,-19.48 -8.73,-8.14 -32.5,-51.78 -22.88,-68.3599999 12.07,-20.7900001 32,-28.0800001 51.95,-38.8200001 11.16,-6.04 37.600002,-18.48 51.700002,-18.52"
           id="path3064"
           inkscape:connector-curvature="0"
           style="fill:#f6b046" />
        <path
           d="m 350.29547,-96.196698 c 4.65,0.18 13.28,11.33 16.56,14.229996 4.99,4.44 12.62,11.49 14.06,18.47 4.74,23.65 -33.07,70.2600001 -43.47,80.41 -3.75,3.57 -10.63,3.29 -13.92,7.12 -1.63,1.93 -3.12,4.33 -4.47,6.61 -1.2,2.11 -4.67,3.24 -5.96,5.17 -6.8,9.87 -13.13,20.33 -18.31,30.84 -4.88,-2.71 -1.93,-4.22 -4.54,-8.55 -1.16,-1.96 -4.86,-2.17 -5.89,-4.22 -7.08,-13.41 -2.1,-43.21 3.09,-57.6499999 1.49,-4.18 5.38,-8.0500001 6.46,-12.8400001 2.14,-9.85 2.77,-19.11 7.82,-25.96 4.4,-6 18.46,-20.65 22.05,-26.59 1.55,-2.57 0.95,-6.33 2.25,-9.23 2.49,-5.569996 17.08,-18.069996 24.27,-17.809996"
           id="path3066"
           inkscape:connector-curvature="0"
           style="fill:#007dc5" />
        <path
           d="m 393.27547,-181.9067 c 13.6,-2.57 14.7,11.96 23.15,20.37 6.29,6.3 9.67,16.53 12.69,25.24 6.38,18.48 1.38,56.859998 -3.84,71.409998 -3.54,9.81 -9.49,19.82 -16.66,25.93 -2.99,2.55 -2.84,2.55 -7.05,2.62 -0.42,-8.18 -0.87,-77.669998 -8.64,-80.709998 -7.79,-3.03 -60.87,15.58 -68.8,18.450002 -8.45,3.02 -23.37,1.33 -30.39,-4.900002 -2.18,-1.94 -9.34,-10.81 -9.78,-13.45 -1.24,-7.08 24.04,-28.43 29.47,-30 5.36,-1.68 9.11,1.35 14.46,-1.6 15.58,-8.66 29.73,-21.11 48.65,-25.81 8.15,-2.08 9.63,-6.22 16.74,-7.55"
           id="path3068"
           inkscape:connector-curvature="0"
           style="fill:#007dc5" />
      </g>
    </g>
    <path
       d="m 215.42137,482.71935 292.39176,0 c 6.55198,0 13.18688,6.59406 13.18688,13.22984 l 0,175.2433 c 0,9.89108 -6.6349,16.52686 -13.18688,16.52686 l -292.39176,0 c -9.86942,0 -16.42138,-6.63578 -16.42138,-16.52686 l 0,-175.2433 c 0,-6.63578 6.55196,-13.22984 16.42138,-13.22984 z"
       id="path8729"
       inkscape:connector-curvature="0"
       style="fill:#024131;fill-opacity:1;stroke:#b3b3b3;stroke-width:0.9999879;stroke-miterlimit:4;stroke-dasharray:none" />
    <path
       style="fill:none;stroke:#b3b3b3;stroke-width:0.9999879;stroke-miterlimit:4;stroke-dasharray:none"
       inkscape:connector-curvature="0"
       id="path8739"
       d="m 215.42137,482.71935 292.39176,0 c 6.55198,0 13.18688,6.59406 13.18688,13.22984 l 0,175.2433 c 0,9.89108 -6.6349,16.52686 -13.18688,16.52686 l -292.39176,0 c -9.86942,0 -16.42138,-6.63578 -16.42138,-16.52686 l 0,-175.2433 c 0,-6.63578 6.55196,-13.22984 16.42138,-13.22984 z" />
    <path
       style="fill:#ffffff;stroke:#b3b3b3;stroke-width:0.9999879;stroke-miterlimit:4;stroke-dasharray:none"
       inkscape:connector-curvature="0"
       id="path8831"
       d="m -300.29292,482.71935 292.391764,0 c 6.55198,0 13.18688,6.59406 13.18688,13.22984 l 0,175.2433 c 0,9.89108 -6.6349,16.52686 -13.18688,16.52686 l -292.391764,0 c -9.86942,0 -16.42138,-6.63578 -16.42138,-16.52686 l 0,-175.2433 c 0,-6.63578 6.55196,-13.22984 16.42138,-13.22984 z" />
    <g
       id="g8575"
       style="fill:#aa934e;fill-opacity:1"
       transform="matrix(0.53688648,0,0,0.53688648,182.52174,437.02436)">
      <text
         transform="scale(1.0218268,0.97863944)"
         sodipodi:linespacing="125%"
         id="text8514"
         y="295.95062"
         x="224.08183"
         style="font-style:normal;font-variant:normal;font-weight:900;font-stretch:normal;font-size:79.60463715px;line-height:125%;font-family:'Noto Sans CJK TC';-inkscape-font-specification:'Noto Sans CJK TC, Heavy';text-align:start;letter-spacing:0px;word-spacing:0px;writing-mode:lr-tb;text-anchor:start;fill:#aa934e;fill-opacity:1;stroke:none;stroke-width:1px;stroke-linecap:butt;stroke-linejoin:miter;stroke-opacity:1"
         xml:space="preserve"><tspan
           y="295.95062"
           x="224.08183"
           id="tspan8516"
           sodipodi:role="line">遠雄文青</tspan></text>
      <text
         transform="scale(1.0230669,0.97745318)"
         xml:space="preserve"
         style="font-style:normal;font-variant:normal;font-weight:bold;font-stretch:normal;font-size:30.33986282px;line-height:125%;font-family:'Noto Sans CJK TC';-inkscape-font-specification:'Noto Sans CJK TC, Bold';text-align:start;letter-spacing:0px;word-spacing:0px;writing-mode:lr-tb;text-anchor:start;fill:#aa934e;fill-opacity:1;stroke:none;stroke-width:1px;stroke-linecap:butt;stroke-linejoin:miter;stroke-opacity:1"
         x="223.94518"
         y="338.99515"
         id="text8533"
         sodipodi:linespacing="125%"><tspan
           y="338.99515"
           x="223.94518"
           id="tspan8539"
           sodipodi:role="line">便 利 生 活‧快 捷 到 家</tspan></text>
    </g>
    <circle
       transform="matrix(0.3476373,0,0,0.3476373,-597.37555,284.86047)"
       style="opacity:1;fill:#290e06;fill-opacity:1;fill-rule:nonzero;stroke:none;stroke-width:5.43196535;stroke-linecap:round;stroke-linejoin:round;stroke-miterlimit:4;stroke-dasharray:none;stroke-dashoffset:53;stroke-opacity:1;filter:url(#filter11607)"
       id="circle8856"
       cx="1903.3295"
       cy="864.00073"
       r="84.971458" />
    <path
       inkscape:connector-curvature="0"
       id="path8858"
       style="opacity:1;fill:url(#radialGradient8860);fill-opacity:1;fill-rule:evenodd;stroke:none;stroke-width:0;stroke-miterlimit:4;stroke-dasharray:none;stroke-opacity:1"
       d="m 35.72638,585.21935 2.35896,-2.35896 2.35896,2.35896 -2.35896,2.35897 z m 52.382787,1e-5 2.35899,-2.35897 2.35897,2.35897 -2.35897,2.35896 z m -26.17539,-26.21166 2.359,-2.35897 2.35896,2.35897 -2.35896,2.35897 z m 0,52.40032 2.35896,-2.35897 2.35897,2.35897 -2.35897,2.35897 z m 2.359,-56.67211 c -16.824357,0 -30.483447,13.6591 -30.483447,30.48345 0,16.82435 13.65909,30.48345 30.483447,30.48345 16.82432,-10e-6 30.48344,-13.6591 30.48344,-30.48345 0,-16.82435 -13.65912,-30.48345 -30.48344,-30.48345 z m 0,1.88824 c 15.8038,0 28.59518,12.7914 28.59518,28.59521 0,15.80381 -12.79138,28.59521 -28.59518,28.59521 -15.803837,0 -28.595217,-12.79141 -28.595217,-28.59521 0,-15.80381 12.79138,-28.59521 28.595217,-28.59521 z m 0.55865,4.7769 c -2.87996,0 -5.75868,1.04322 -8.018737,3.12534 -0.20427,-0.0105 -0.40969,-0.0163 -0.61653,-0.0163 -6.36576,0 -11.57188,5.0485 -11.83052,11.35186 -0.15202,0.13711 -0.30175,0.27864 -0.44814,0.42503 -4.50096,4.50098 -4.61217,11.75117 -0.33881,16.39123 -0.0108,0.20494 -0.0163,0.41102 -0.0163,0.61855 0,6.36599 5.04953,11.57221 11.3532,11.83053 0.13711,0.15202 0.27798,0.30174 0.42437,0.44812 4.501407,4.50143 11.752567,4.61279 16.392587,0.33813 0.20451,0.0106 0.41011,0.0163 0.61719,0.0163 6.36601,0 11.5716,-5.04888 11.82986,-11.35253 0.15202,-0.13712 0.30178,-0.27797 0.44817,-0.42435 4.50117,-4.50118 4.61277,-11.75188 0.33881,-16.39192 0.0104,-0.20472 0.0163,-0.41057 0.0163,-0.61787 0,-6.36532 -5.04843,-11.57054 -11.35119,-11.82985 -0.13736,-0.15227 -0.27912,-0.30219 -0.42572,-0.44881 -2.30887,-2.30886 -5.3418,-3.46347 -8.37451,-3.46347 z m 0,1.72732 c 2.28593,0 4.57063,0.7747 6.43602,2.32143 -2.38232,0.37994 -4.52812,1.47318 -6.21468,3.05269 -1.5426,-1.7384 -3.58595,-3.02265 -5.90371,-3.61964 1.71065,-1.16806 3.69583,-1.75448 5.68237,-1.75448 z m -9.592627,3.1654 c -1.41583,1.95325 -2.16022,4.24403 -2.23587,6.55351 -0.23705,-0.0141 -0.47421,-0.0238 -0.71158,-0.0238 -2.0861,-10e-6 -4.1715,0.54656 -6.02187,1.63905 0.82494,-4.37745 4.46029,-7.74706 8.96932,-8.16879 z m 2.222957,0.0353 c 2.56049,0.31856 4.81958,1.58938 6.41297,3.44989 -1.57952,1.98319 -2.53667,4.4819 -2.57401,7.19989 -0.2018,-0.23633 -0.41139,-0.46844 -0.63485,-0.69188 -1.68771,-1.68773 -3.762447,-2.75612 -5.941047,-3.21021 0.0388,-2.4293 0.95103,-4.84561 2.736937,-6.74769 z m 15.35309,0.71768 c 1.58488,2.03583 2.28301,4.53158 2.09396,6.97379 -2.51912,0.28564 -4.96256,1.37523 -6.91065,3.27064 0.0243,-0.30997 0.0408,-0.6222 0.0408,-0.93835 0,-2.38662 -0.71179,-4.60928 -1.93102,-6.47067 1.74517,-1.69014 4.0992,-2.75338 6.70696,-2.83541 z m 2.21619,0.17042 c 4.37717,0.82535 7.74665,4.46047 8.16812,8.96932 -1.95313,-1.41609 -4.24396,-2.16008 -6.55352,-2.23588 0.1385,-2.31979 -0.39815,-4.67253 -1.6146,-6.73344 z m -10.10662,4.03721 c 0.87393,1.49583 1.3763,3.23688 1.3763,5.09845 0,2.19996 -0.70063,4.23169 -1.88892,5.88879 -0.87407,-1.49594 -1.37696,-3.23669 -1.37696,-5.09845 0,-2.20004 0.70122,-4.23178 1.88958,-5.88879 z m -12.633067,3.29645 c 0.26066,0 0.5215,0.0125 0.78149,0.0326 0.28562,2.51952 1.37599,4.96299 3.27204,6.91133 -0.3102,-0.0245 -0.62266,-0.0407 -0.93904,-0.0407 -2.38643,0 -4.6086,0.712 -6.46998,1.93101 -1.69057,-1.74524 -2.75458,-4.09909 -2.83679,-6.70695 1.81897,-1.41638 4.00478,-2.12725 6.19228,-2.12724 z m 2.56724,0.33337 c 1.67575,0.43979 3.262047,1.31544 4.578337,2.63173 1.55561,1.55563 2.49656,3.4877 2.82793,5.49973 -1.67592,-0.43973 -3.26254,-1.31525 -4.57901,-2.63173 -1.555537,-1.55551 -2.495827,-3.48786 -2.827257,-5.49973 z m 21.556877,0.7883 c 2.4295,0.0387 4.8462,0.95075 6.74837,2.73696 -0.31875,2.56039 -1.59051,4.81832 -3.45124,6.4116 -1.98316,-1.57923 -4.48149,-2.53616 -7.19922,-2.57333 0.2366,-0.20199 0.46889,-0.41118 0.69256,-0.63484 1.68754,-1.68752 2.75541,-3.76217 3.20953,-5.94039 z m -1.80743,0.13308 c -0.4398,1.67566 -1.31543,3.26208 -2.63172,4.57836 -1.55544,1.55543 -3.48729,2.49576 -5.49907,2.82726 0.43983,-1.67555 1.31483,-3.26146 2.63106,-4.57767 1.55547,-1.55547 3.48784,-2.49646 5.49973,-2.82795 z m -30.105257,2.41988 c 0.38011,2.38218 1.47315,4.52813 3.05268,6.21469 -1.73819,1.54231 -3.02309,3.58513 -3.6203,5.90237 -2.51109,-3.6786 -2.32232,-8.63094 0.56762,-12.11706 z m 40.107297,1.87127 c 2.51154,3.67865 2.32316,8.6314 -0.56696,12.11773 -0.38004,-2.38234 -1.47377,-4.52808 -3.05337,-6.21469 1.7385,-1.54248 3.02316,-3.58542 3.62033,-5.90304 z m -29.204237,3.09546 c 2.200087,0 4.231747,0.70117 5.888757,1.88959 -1.49581,0.87402 -3.23688,1.37629 -5.098437,1.3763 -2.19975,0 -4.2311,-0.70138 -5.88811,-1.8896 1.49581,-0.87372 3.23643,-1.37629 5.09779,-1.37629 z m 7.199217,0.35986 3.33582,-10e-6 0,3.33583 -3.33582,0 0,-3.33582 z m 9.74469,0.42979 c 2.19971,0 4.23123,0.70076 5.88811,1.88892 -1.49599,0.87401 -3.23675,1.37698 -5.09845,1.37697 -2.19992,0 -4.23117,-0.70134 -5.88811,-1.88959 1.49592,-0.87401 3.23689,-1.3763 5.09845,-1.3763 z m -23.517107,1.63702 c 1.9832,1.5793 4.48157,2.53601 7.19922,2.57333 -0.23632,0.20181 -0.46847,0.41141 -0.6919,0.63485 -1.68754,1.68753 -2.75541,3.76215 -3.20953,5.94038 -2.42939,-0.0387 -4.84623,-0.95098 -6.74837,-2.73696 0.31875,-2.56026 1.58999,-4.81834 3.45058,-6.4116 z m 30.777437,1.43536 c 1.69029,1.74511 2.75374,4.09931 2.8361,6.70696 -2.0358,1.58522 -4.53145,2.28421 -6.97381,2.09533 -0.28552,-2.51956 -1.37533,-4.96294 -3.27131,-6.91133 0.30996,0.0244 0.62221,0.0407 0.93835,0.0407 2.38674,0 4.60911,-0.7124 6.47067,-1.9317 z m -17.54143,0.17382 c -0.43979,1.67566 -1.31546,3.26208 -2.63172,4.57836 -1.55546,1.55544 -3.487277,2.49577 -5.499057,2.82727 0.43983,-1.67556 1.31483,-3.26147 2.63106,-4.57768 1.555597,-1.55563 3.487807,-2.49655 5.499717,-2.82795 z m 4.21239,0.19623 c 1.67576,0.43978 3.26206,1.31543 4.57835,2.63172 1.55564,1.55563 2.49656,3.48771 2.82796,5.49973 -1.67596,-0.43972 -3.26257,-1.31525 -4.57904,-2.63172 -1.5555,-1.55553 -2.49579,-3.48786 -2.82727,-5.49973 z m -2.14693,0.77471 c 0.87371,1.49572 1.37629,3.23641 1.37629,5.09778 0,2.19996 -0.70063,4.23168 -1.88892,5.88878 -0.87413,-1.49591 -1.37696,-3.23672 -1.37696,-5.09845 0,-2.19977 0.70136,-4.23109 1.88959,-5.88811 z m -3.58706,4.94908 c -0.0243,0.3102 -0.0407,0.62265 -0.0407,0.93903 0,2.38686 0.71213,4.60916 1.93168,6.47067 -1.7449,1.6902 -4.09889,2.75373 -6.706267,2.8361 -1.58537,-2.036 -2.2844,-4.5319 -2.09535,-6.97448 2.5194,-0.28549 4.962307,-1.37559 6.910647,-3.27132 z m 6.69747,0.31233 c 0.20198,0.23659 0.41119,0.4689 0.63482,0.69256 1.68771,1.68769 3.76262,2.75549 5.94109,3.20954 -0.0387,2.42908 -0.95072,4.84565 -2.73629,6.74768 -2.56063,-0.31857 -4.8194,-1.58926 -6.41297,-3.44989 1.57935,-1.98339 2.53619,-4.48191 2.57335,-7.19989 z m -21.897777,0.79305 c 1.9532,1.41579 4.2441,2.16018 6.55352,2.23588 -0.13846,2.32003 0.39853,4.67306 1.6153,6.73411 -4.3778,-0.82499 -7.74727,-4.46065 -8.16882,-8.96999 z m 36.928987,1.72393 c -0.82498,4.37722 -4.4598,7.7464 -8.96862,8.16812 1.41561,-1.95311 2.15952,-4.24359 2.2352,-6.55283 2.31985,0.13835 4.67256,-0.39864 6.73342,-1.61529 z m -18.7826,5.96007 c 1.54257,1.73816 3.58557,3.02261 5.90306,3.61964 -3.67867,2.51164 -8.63138,2.32322 -12.11774,-0.56695 2.38212,-0.38008 4.52826,-1.47314 6.21468,-3.05269 z" />
    <circle
       transform="matrix(0.3476373,0,0,0.3476373,-517.06842,284.86047)"
       style="opacity:1;fill:url(#radialGradient9670);fill-opacity:1;fill-rule:nonzero;stroke:none;stroke-width:5.43196535;stroke-linecap:round;stroke-linejoin:round;stroke-miterlimit:4;stroke-dasharray:none;stroke-dashoffset:53;stroke-opacity:1;filter:url(#filter11607)"
       id="circle9666"
       cx="1903.3295"
       cy="864.00073"
       r="84.971458" />
    <circle
       transform="matrix(0.3476373,0,0,0.3476373,-518.07858,377.7945)"
       style="opacity:1;fill:url(#radialGradient9684);fill-opacity:1;fill-rule:nonzero;stroke:none;stroke-width:5.43196535;stroke-linecap:round;stroke-linejoin:round;stroke-miterlimit:4;stroke-dasharray:none;stroke-dashoffset:53;stroke-opacity:1;filter:url(#filter11607)"
       id="circle9680"
       cx="1903.3295"
       cy="864.00073"
       r="84.971458" />
    <path
       inkscape:connector-curvature="0"
       id="path9682"
       style="opacity:1;fill:url(#radialGradient9686);fill-opacity:1;fill-rule:evenodd;stroke:none;stroke-width:0;stroke-miterlimit:4;stroke-dasharray:none;stroke-opacity:1"
       d="m 115.02334,678.15337 2.35896,-2.35896 2.35896,2.35896 -2.35896,2.35897 z m 52.38279,10e-6 2.35899,-2.35897 2.35897,2.35897 -2.35897,2.35896 z m -26.17539,-26.21166 2.359,-2.35897 2.35896,2.35897 -2.35896,2.35897 z m 0,52.40032 2.35896,-2.35897 2.35897,2.35897 -2.35897,2.35897 z m 2.359,-56.67211 c -16.82436,0 -30.48345,13.6591 -30.48345,30.48345 0,16.82435 13.65909,30.48345 30.48345,30.48345 16.82432,-1e-5 30.48344,-13.6591 30.48344,-30.48345 0,-16.82435 -13.65912,-30.48345 -30.48344,-30.48345 z m 0,1.88824 c 15.8038,0 28.59518,12.7914 28.59518,28.59521 0,15.80381 -12.79138,28.59521 -28.59518,28.59521 -15.80384,0 -28.59522,-12.79141 -28.59522,-28.59521 0,-15.80381 12.79138,-28.59521 28.59522,-28.59521 z m 0.55865,4.7769 c -2.87996,0 -5.75868,1.04322 -8.01874,3.12534 -0.20427,-0.0105 -0.40969,-0.0163 -0.61653,-0.0163 -6.36576,0 -11.57188,5.0485 -11.83052,11.35186 -0.15202,0.13711 -0.30175,0.27864 -0.44814,0.42503 -4.50096,4.50098 -4.61217,11.75117 -0.33881,16.39123 -0.0108,0.20494 -0.0163,0.41102 -0.0163,0.61855 0,6.36599 5.04953,11.57221 11.3532,11.83053 0.13711,0.15202 0.27798,0.30174 0.42437,0.44812 4.50141,4.50143 11.75257,4.61279 16.39259,0.33813 0.20451,0.0106 0.41011,0.0163 0.61719,0.0163 6.36601,0 11.5716,-5.04888 11.82986,-11.35253 0.15202,-0.13712 0.30178,-0.27797 0.44817,-0.42435 4.50117,-4.50118 4.61277,-11.75188 0.33881,-16.39192 0.0104,-0.20472 0.0163,-0.41057 0.0163,-0.61787 0,-6.36532 -5.04843,-11.57054 -11.35119,-11.82985 -0.13736,-0.15227 -0.27912,-0.30219 -0.42572,-0.44881 -2.30887,-2.30886 -5.3418,-3.46347 -8.37451,-3.46347 z m 0,1.72732 c 2.28593,0 4.57063,0.7747 6.43602,2.32143 -2.38232,0.37994 -4.52812,1.47318 -6.21468,3.05269 -1.5426,-1.7384 -3.58595,-3.02265 -5.90371,-3.61964 1.71065,-1.16806 3.69583,-1.75448 5.68237,-1.75448 z m -9.59263,3.1654 c -1.41583,1.95325 -2.16022,4.24403 -2.23587,6.55351 -0.23705,-0.0141 -0.47421,-0.0238 -0.71158,-0.0238 -2.0861,-1e-5 -4.1715,0.54656 -6.02187,1.63905 0.82494,-4.37745 4.46029,-7.74706 8.96932,-8.16879 z m 2.22296,0.0353 c 2.56049,0.31856 4.81958,1.58938 6.41297,3.44989 -1.57952,1.98319 -2.53667,4.4819 -2.57401,7.19989 -0.2018,-0.23633 -0.41139,-0.46844 -0.63485,-0.69188 -1.68771,-1.68773 -3.76245,-2.75612 -5.94105,-3.21021 0.0388,-2.4293 0.95103,-4.84561 2.73694,-6.74769 z m 15.35309,0.71768 c 1.58488,2.03583 2.28301,4.53158 2.09396,6.97379 -2.51912,0.28564 -4.96256,1.37523 -6.91065,3.27064 0.0243,-0.30997 0.0408,-0.6222 0.0408,-0.93835 0,-2.38662 -0.71179,-4.60928 -1.93102,-6.47067 1.74517,-1.69014 4.0992,-2.75338 6.70696,-2.83541 z m 2.21619,0.17042 c 4.37717,0.82535 7.74665,4.46047 8.16812,8.96932 -1.95313,-1.41609 -4.24396,-2.16008 -6.55352,-2.23588 0.1385,-2.31979 -0.39815,-4.67253 -1.6146,-6.73344 z m -10.10662,4.03721 c 0.87393,1.49583 1.3763,3.23688 1.3763,5.09845 0,2.19996 -0.70063,4.23169 -1.88892,5.88879 -0.87407,-1.49594 -1.37696,-3.23669 -1.37696,-5.09845 0,-2.20004 0.70122,-4.23178 1.88958,-5.88879 z m -12.63307,3.29645 c 0.26066,0 0.5215,0.0125 0.78149,0.0326 0.28562,2.51952 1.37599,4.96299 3.27204,6.91133 -0.3102,-0.0245 -0.62266,-0.0407 -0.93904,-0.0407 -2.38643,0 -4.6086,0.712 -6.46998,1.93101 -1.69057,-1.74524 -2.75458,-4.09909 -2.83679,-6.70695 1.81897,-1.41638 4.00478,-2.12725 6.19228,-2.12724 z m 2.56724,0.33337 c 1.67575,0.43979 3.26205,1.31544 4.57834,2.63173 1.55561,1.55563 2.49656,3.4877 2.82793,5.49973 -1.67592,-0.43973 -3.26254,-1.31525 -4.57901,-2.63173 -1.55554,-1.55551 -2.49583,-3.48786 -2.82726,-5.49973 z m 21.55688,0.7883 c 2.4295,0.0387 4.8462,0.95075 6.74837,2.73696 -0.31875,2.56039 -1.59051,4.81832 -3.45124,6.4116 -1.98316,-1.57923 -4.48149,-2.53616 -7.19922,-2.57333 0.2366,-0.20199 0.46889,-0.41118 0.69256,-0.63484 1.68754,-1.68752 2.75541,-3.76217 3.20953,-5.94039 z m -1.80743,0.13308 c -0.4398,1.67566 -1.31543,3.26208 -2.63172,4.57836 -1.55544,1.55543 -3.48729,2.49576 -5.49907,2.82726 0.43983,-1.67555 1.31483,-3.26146 2.63106,-4.57767 1.55547,-1.55547 3.48784,-2.49646 5.49973,-2.82795 z m -30.10526,2.41988 c 0.38011,2.38218 1.47315,4.52813 3.05268,6.21469 -1.73819,1.54231 -3.02309,3.58513 -3.6203,5.90237 -2.51109,-3.6786 -2.32232,-8.63094 0.56762,-12.11706 z m 40.1073,1.87127 c 2.51154,3.67865 2.32316,8.6314 -0.56696,12.11773 -0.38004,-2.38234 -1.47377,-4.52808 -3.05337,-6.21469 1.7385,-1.54248 3.02316,-3.58542 3.62033,-5.90304 z m -29.20424,3.09546 c 2.20009,0 4.23175,0.70117 5.88876,1.88959 -1.49581,0.87402 -3.23688,1.37629 -5.09844,1.3763 -2.19975,0 -4.2311,-0.70138 -5.88811,-1.8896 1.49581,-0.87372 3.23643,-1.37629 5.09779,-1.37629 z m 7.19922,0.35986 3.33582,-1e-5 0,3.33583 -3.33582,0 0,-3.33582 z m 9.74469,0.42979 c 2.19971,0 4.23123,0.70076 5.88811,1.88892 -1.49599,0.87401 -3.23675,1.37698 -5.09845,1.37697 -2.19992,0 -4.23117,-0.70134 -5.88811,-1.88959 1.49592,-0.87401 3.23689,-1.3763 5.09845,-1.3763 z m -23.51711,1.63702 c 1.9832,1.5793 4.48157,2.53601 7.19922,2.57333 -0.23632,0.20181 -0.46847,0.41141 -0.6919,0.63485 -1.68754,1.68753 -2.75541,3.76215 -3.20953,5.94038 -2.42939,-0.0387 -4.84623,-0.95098 -6.74837,-2.73696 0.31875,-2.56026 1.58999,-4.81834 3.45058,-6.4116 z m 30.77744,1.43536 c 1.69029,1.74511 2.75374,4.09931 2.8361,6.70696 -2.0358,1.58522 -4.53145,2.28421 -6.97381,2.09533 -0.28552,-2.51956 -1.37533,-4.96294 -3.27131,-6.91133 0.30996,0.0244 0.62221,0.0407 0.93835,0.0407 2.38674,0 4.60911,-0.7124 6.47067,-1.9317 z m -17.54143,0.17382 c -0.43979,1.67566 -1.31546,3.26208 -2.63172,4.57836 -1.55546,1.55544 -3.48728,2.49577 -5.49906,2.82727 0.43983,-1.67556 1.31483,-3.26147 2.63106,-4.57768 1.5556,-1.55563 3.48781,-2.49655 5.49972,-2.82795 z m 4.21239,0.19623 c 1.67576,0.43978 3.26206,1.31543 4.57835,2.63172 1.55564,1.55563 2.49656,3.48771 2.82796,5.49973 -1.67596,-0.43972 -3.26257,-1.31525 -4.57904,-2.63172 -1.5555,-1.55553 -2.49579,-3.48786 -2.82727,-5.49973 z m -2.14693,0.77471 c 0.87371,1.49572 1.37629,3.23641 1.37629,5.09778 0,2.19996 -0.70063,4.23168 -1.88892,5.88878 -0.87413,-1.49591 -1.37696,-3.23672 -1.37696,-5.09845 0,-2.19977 0.70136,-4.23109 1.88959,-5.88811 z m -3.58706,4.94908 c -0.0243,0.3102 -0.0407,0.62265 -0.0407,0.93903 0,2.38686 0.71213,4.60916 1.93168,6.47067 -1.7449,1.6902 -4.09889,2.75373 -6.70627,2.8361 -1.58537,-2.036 -2.2844,-4.5319 -2.09535,-6.97448 2.5194,-0.28549 4.96231,-1.37559 6.91065,-3.27132 z m 6.69747,0.31233 c 0.20198,0.23659 0.41119,0.4689 0.63482,0.69256 1.68771,1.68769 3.76262,2.75549 5.94109,3.20954 -0.0387,2.42908 -0.95072,4.84565 -2.73629,6.74768 -2.56063,-0.31857 -4.8194,-1.58926 -6.41297,-3.44989 1.57935,-1.98339 2.53619,-4.48191 2.57335,-7.19989 z m -21.89778,0.79305 c 1.9532,1.41579 4.2441,2.16018 6.55352,2.23588 -0.13846,2.32003 0.39853,4.67306 1.6153,6.73411 -4.3778,-0.82499 -7.74727,-4.46065 -8.16882,-8.96999 z m 36.92899,1.72393 c -0.82498,4.37722 -4.4598,7.7464 -8.96862,8.16812 1.41561,-1.95311 2.15952,-4.24359 2.2352,-6.55283 2.31985,0.13835 4.67256,-0.39864 6.73342,-1.61529 z m -18.7826,5.96007 c 1.54257,1.73816 3.58557,3.02261 5.90306,3.61964 -3.67867,2.51164 -8.63138,2.32322 -12.11774,-0.56695 2.38212,-0.38008 4.52826,-1.47314 6.21468,-3.05269 z" />
    <path
       d="m 116.0335,585.21934 2.35896,-2.35896 2.35896,2.35896 -2.35896,2.35897 z m 52.38279,10e-6 2.35899,-2.35897 2.35897,2.35897 -2.35897,2.35896 z m -26.17539,-26.21166 2.359,-2.35897 2.35896,2.35897 -2.35896,2.35897 z m 0,52.40032 2.35896,-2.35897 2.35897,2.35897 -2.35897,2.35897 z m 2.359,-56.67211 c -16.82436,0 -30.48345,13.6591 -30.48345,30.48345 0,16.82435 13.65909,30.48345 30.48345,30.48345 16.82432,-10e-6 30.48344,-13.6591 30.48344,-30.48345 0,-16.82435 -13.65912,-30.48345 -30.48344,-30.48345 z m 0,1.88824 c 15.8038,0 28.59518,12.7914 28.59518,28.59521 0,15.80381 -12.79138,28.59521 -28.59518,28.59521 -15.80384,0 -28.59522,-12.79141 -28.59522,-28.59521 0,-15.80381 12.79138,-28.59521 28.59522,-28.59521 z m 0.55865,4.7769 c -2.87996,0 -5.75868,1.04322 -8.01874,3.12534 -0.20427,-0.0105 -0.40969,-0.0163 -0.61653,-0.0163 -6.36576,0 -11.57188,5.0485 -11.83052,11.35186 -0.15202,0.13711 -0.30175,0.27864 -0.44814,0.42503 -4.50096,4.50098 -4.61217,11.75117 -0.33881,16.39123 -0.0108,0.20494 -0.0163,0.41102 -0.0163,0.61855 0,6.36599 5.04953,11.57221 11.3532,11.83053 0.13711,0.15202 0.27798,0.30174 0.42437,0.44812 4.50141,4.50143 11.75257,4.61279 16.39259,0.33813 0.20451,0.0106 0.41011,0.0163 0.61719,0.0163 6.36601,0 11.5716,-5.04888 11.82986,-11.35253 0.15202,-0.13712 0.30178,-0.27797 0.44817,-0.42435 4.50117,-4.50118 4.61277,-11.75188 0.33881,-16.39192 0.0104,-0.20472 0.0163,-0.41057 0.0163,-0.61787 0,-6.36532 -5.04843,-11.57054 -11.35119,-11.82985 -0.13736,-0.15227 -0.27912,-0.30219 -0.42572,-0.44881 -2.30887,-2.30886 -5.3418,-3.46347 -8.37451,-3.46347 z m 0,1.72732 c 2.28593,0 4.57063,0.7747 6.43602,2.32143 -2.38232,0.37994 -4.52812,1.47318 -6.21468,3.05269 -1.5426,-1.7384 -3.58595,-3.02265 -5.90371,-3.61964 1.71065,-1.16806 3.69583,-1.75448 5.68237,-1.75448 z m -9.59263,3.1654 c -1.41583,1.95325 -2.16022,4.24403 -2.23587,6.55351 -0.23705,-0.0141 -0.47421,-0.0238 -0.71158,-0.0238 -2.0861,-1e-5 -4.1715,0.54656 -6.02187,1.63905 0.82494,-4.37745 4.46029,-7.74706 8.96932,-8.16879 z m 2.22296,0.0353 c 2.56049,0.31856 4.81958,1.58938 6.41297,3.44989 -1.57952,1.98319 -2.53667,4.4819 -2.57401,7.19989 -0.2018,-0.23633 -0.41139,-0.46844 -0.63485,-0.69188 -1.68771,-1.68773 -3.76245,-2.75612 -5.94105,-3.21021 0.0388,-2.4293 0.95103,-4.84561 2.73694,-6.74769 z m 15.35309,0.71768 c 1.58488,2.03583 2.28301,4.53158 2.09396,6.97379 -2.51912,0.28564 -4.96256,1.37523 -6.91065,3.27064 0.0243,-0.30997 0.0408,-0.6222 0.0408,-0.93835 0,-2.38662 -0.71179,-4.60928 -1.93102,-6.47067 1.74517,-1.69014 4.0992,-2.75338 6.70696,-2.83541 z m 2.21619,0.17042 c 4.37717,0.82535 7.74665,4.46047 8.16812,8.96932 -1.95313,-1.41609 -4.24396,-2.16008 -6.55352,-2.23588 0.1385,-2.31979 -0.39815,-4.67253 -1.6146,-6.73344 z m -10.10662,4.03721 c 0.87393,1.49583 1.3763,3.23688 1.3763,5.09845 0,2.19996 -0.70063,4.23169 -1.88892,5.88879 -0.87407,-1.49594 -1.37696,-3.23669 -1.37696,-5.09845 0,-2.20004 0.70122,-4.23178 1.88958,-5.88879 z m -12.63307,3.29645 c 0.26066,0 0.5215,0.0125 0.78149,0.0326 0.28562,2.51952 1.37599,4.96299 3.27204,6.91133 -0.3102,-0.0245 -0.62266,-0.0407 -0.93904,-0.0407 -2.38643,0 -4.6086,0.712 -6.46998,1.93101 -1.69057,-1.74524 -2.75458,-4.09909 -2.83679,-6.70695 1.81897,-1.41638 4.00478,-2.12725 6.19228,-2.12724 z m 2.56724,0.33337 c 1.67575,0.43979 3.26205,1.31544 4.57834,2.63173 1.55561,1.55563 2.49656,3.4877 2.82793,5.49973 -1.67592,-0.43973 -3.26254,-1.31525 -4.57901,-2.63173 -1.55554,-1.55551 -2.49583,-3.48786 -2.82726,-5.49973 z m 21.55688,0.7883 c 2.4295,0.0387 4.8462,0.95075 6.74837,2.73696 -0.31875,2.56039 -1.59051,4.81832 -3.45124,6.4116 -1.98316,-1.57923 -4.48149,-2.53616 -7.19922,-2.57333 0.2366,-0.20199 0.46889,-0.41118 0.69256,-0.63484 1.68754,-1.68752 2.75541,-3.76217 3.20953,-5.94039 z m -1.80743,0.13308 c -0.4398,1.67566 -1.31543,3.26208 -2.63172,4.57836 -1.55544,1.55543 -3.48729,2.49576 -5.49907,2.82726 0.43983,-1.67555 1.31483,-3.26146 2.63106,-4.57767 1.55547,-1.55547 3.48784,-2.49646 5.49973,-2.82795 z m -30.10526,2.41988 c 0.38011,2.38218 1.47315,4.52813 3.05268,6.21469 -1.73819,1.54231 -3.02309,3.58513 -3.6203,5.90237 -2.51109,-3.6786 -2.32232,-8.63094 0.56762,-12.11706 z m 40.1073,1.87127 c 2.51154,3.67865 2.32316,8.6314 -0.56696,12.11773 -0.38004,-2.38234 -1.47377,-4.52808 -3.05337,-6.21469 1.7385,-1.54248 3.02316,-3.58542 3.62033,-5.90304 z m -29.20424,3.09546 c 2.20009,0 4.23175,0.70117 5.88876,1.88959 -1.49581,0.87402 -3.23688,1.37629 -5.09844,1.3763 -2.19975,0 -4.2311,-0.70138 -5.88811,-1.8896 1.49581,-0.87372 3.23643,-1.37629 5.09779,-1.37629 z m 7.19922,0.35986 3.33582,-1e-5 0,3.33583 -3.33582,0 0,-3.33582 z m 9.74469,0.42979 c 2.19971,0 4.23123,0.70076 5.88811,1.88892 -1.49599,0.87401 -3.23675,1.37698 -5.09845,1.37697 -2.19992,0 -4.23117,-0.70134 -5.88811,-1.88959 1.49592,-0.87401 3.23689,-1.3763 5.09845,-1.3763 z m -23.51711,1.63702 c 1.9832,1.5793 4.48157,2.53601 7.19922,2.57333 -0.23632,0.20181 -0.46847,0.41141 -0.6919,0.63485 -1.68754,1.68753 -2.75541,3.76215 -3.20953,5.94038 -2.42939,-0.0387 -4.84623,-0.95098 -6.74837,-2.73696 0.31875,-2.56026 1.58999,-4.81834 3.45058,-6.4116 z m 30.77744,1.43536 c 1.69029,1.74511 2.75374,4.09931 2.8361,6.70696 -2.0358,1.58522 -4.53145,2.28421 -6.97381,2.09533 -0.28552,-2.51956 -1.37533,-4.96294 -3.27131,-6.91133 0.30996,0.0244 0.62221,0.0407 0.93835,0.0407 2.38674,0 4.60911,-0.7124 6.47067,-1.9317 z m -17.54143,0.17382 c -0.43979,1.67566 -1.31546,3.26208 -2.63172,4.57836 -1.55546,1.55544 -3.48728,2.49577 -5.49906,2.82727 0.43983,-1.67556 1.31483,-3.26147 2.63106,-4.57768 1.5556,-1.55563 3.48781,-2.49655 5.49972,-2.82795 z m 4.21239,0.19623 c 1.67576,0.43978 3.26206,1.31543 4.57835,2.63172 1.55564,1.55563 2.49656,3.48771 2.82796,5.49973 -1.67596,-0.43972 -3.26257,-1.31525 -4.57904,-2.63172 -1.5555,-1.55553 -2.49579,-3.48786 -2.82727,-5.49973 z m -2.14693,0.77471 c 0.87371,1.49572 1.37629,3.23641 1.37629,5.09778 0,2.19996 -0.70063,4.23168 -1.88892,5.88878 -0.87413,-1.49591 -1.37696,-3.23672 -1.37696,-5.09845 0,-2.19977 0.70136,-4.23109 1.88959,-5.88811 z m -3.58706,4.94908 c -0.0243,0.3102 -0.0407,0.62265 -0.0407,0.93903 0,2.38686 0.71213,4.60916 1.93168,6.47067 -1.7449,1.6902 -4.09889,2.75373 -6.70627,2.8361 -1.58537,-2.036 -2.2844,-4.5319 -2.09535,-6.97448 2.5194,-0.28549 4.96231,-1.37559 6.91065,-3.27132 z m 6.69747,0.31233 c 0.20198,0.23659 0.41119,0.4689 0.63482,0.69256 1.68771,1.68769 3.76262,2.75549 5.94109,3.20954 -0.0387,2.42908 -0.95072,4.84565 -2.73629,6.74768 -2.56063,-0.31857 -4.8194,-1.58926 -6.41297,-3.44989 1.57935,-1.98339 2.53619,-4.48191 2.57335,-7.19989 z m -21.89778,0.79305 c 1.9532,1.41579 4.2441,2.16018 6.55352,2.23588 -0.13846,2.32003 0.39853,4.67306 1.6153,6.73411 -4.3778,-0.82499 -7.74727,-4.46065 -8.16882,-8.96999 z m 36.92899,1.72393 c -0.82498,4.37722 -4.4598,7.7464 -8.96862,8.16812 1.41561,-1.95311 2.15952,-4.24359 2.2352,-6.55283 2.31985,0.13835 4.67256,-0.39864 6.73342,-1.61529 z m -18.7826,5.96007 c 1.54257,1.73816 3.58557,3.02261 5.90306,3.61964 -3.67867,2.51164 -8.63138,2.32322 -12.11774,-0.56695 2.38212,-0.38008 4.52826,-1.47314 6.21468,-3.05269 z"
       style="opacity:1;fill:url(#radialGradient11589);fill-opacity:1;fill-rule:evenodd;stroke:none;stroke-width:0;stroke-miterlimit:4;stroke-dasharray:none;stroke-opacity:1"
       id="path11587"
       inkscape:connector-curvature="0" />
    <g
       id="g9694">
      <circle
         transform="matrix(0.3476373,0,0,0.3476373,-396.86027,284.86047)"
         style="opacity:1;fill:url(#radialGradient9658);fill-opacity:1;fill-rule:nonzero;stroke:none;stroke-width:5.43196535;stroke-linecap:round;stroke-linejoin:round;stroke-miterlimit:4;stroke-dasharray:none;stroke-dashoffset:53;stroke-opacity:1;filter:url(#filter11607)"
         id="circle11595"
         cx="1903.3295"
         cy="864.00073"
         r="84.971458" />
      <path
         d="m 236.24165,585.21934 2.35896,-2.35896 2.35896,2.35896 -2.35896,2.35897 z m 52.38279,10e-6 2.35899,-2.35897 2.35897,2.35897 -2.35897,2.35896 z m -26.17539,-26.21166 2.359,-2.35897 2.35896,2.35897 -2.35896,2.35897 z m 0,52.40032 2.35896,-2.35897 2.35897,2.35897 -2.35897,2.35897 z m 2.359,-56.67211 c -16.82436,0 -30.48345,13.6591 -30.48345,30.48345 0,16.82435 13.65909,30.48345 30.48345,30.48345 16.82432,-10e-6 30.48344,-13.6591 30.48344,-30.48345 0,-16.82435 -13.65912,-30.48345 -30.48344,-30.48345 z m 0,1.88824 c 15.8038,0 28.59518,12.7914 28.59518,28.59521 0,15.80381 -12.79138,28.59521 -28.59518,28.59521 -15.80384,0 -28.59522,-12.79141 -28.59522,-28.59521 0,-15.80381 12.79138,-28.59521 28.59522,-28.59521 z m 0.55865,4.7769 c -2.87996,0 -5.75868,1.04322 -8.01874,3.12534 -0.20427,-0.0105 -0.40969,-0.0163 -0.61653,-0.0163 -6.36576,0 -11.57188,5.0485 -11.83052,11.35186 -0.15202,0.13711 -0.30175,0.27864 -0.44814,0.42503 -4.50096,4.50098 -4.61217,11.75117 -0.33881,16.39123 -0.0108,0.20494 -0.0163,0.41102 -0.0163,0.61855 0,6.36599 5.04953,11.57221 11.3532,11.83053 0.13711,0.15202 0.27798,0.30174 0.42437,0.44812 4.50141,4.50143 11.75257,4.61279 16.39259,0.33813 0.20451,0.0106 0.41011,0.0163 0.61719,0.0163 6.36601,0 11.5716,-5.04888 11.82986,-11.35253 0.15202,-0.13712 0.30178,-0.27797 0.44817,-0.42435 4.50117,-4.50118 4.61277,-11.75188 0.33881,-16.39192 0.0104,-0.20472 0.0163,-0.41057 0.0163,-0.61787 0,-6.36532 -5.04843,-11.57054 -11.35119,-11.82985 -0.13736,-0.15227 -0.27912,-0.30219 -0.42572,-0.44881 -2.30887,-2.30886 -5.3418,-3.46347 -8.37451,-3.46347 z m 0,1.72732 c 2.28593,0 4.57063,0.7747 6.43602,2.32143 -2.38232,0.37994 -4.52812,1.47318 -6.21468,3.05269 -1.5426,-1.7384 -3.58595,-3.02265 -5.90371,-3.61964 1.71065,-1.16806 3.69583,-1.75448 5.68237,-1.75448 z m -9.59263,3.1654 c -1.41583,1.95325 -2.16022,4.24403 -2.23587,6.55351 -0.23705,-0.0141 -0.47421,-0.0238 -0.71158,-0.0238 -2.0861,-1e-5 -4.1715,0.54656 -6.02187,1.63905 0.82494,-4.37745 4.46029,-7.74706 8.96932,-8.16879 z m 2.22296,0.0353 c 2.56049,0.31856 4.81958,1.58938 6.41297,3.44989 -1.57952,1.98319 -2.53667,4.4819 -2.57401,7.19989 -0.2018,-0.23633 -0.41139,-0.46844 -0.63485,-0.69188 -1.68771,-1.68773 -3.76245,-2.75612 -5.94105,-3.21021 0.0388,-2.4293 0.95103,-4.84561 2.73694,-6.74769 z m 15.35309,0.71768 c 1.58488,2.03583 2.28301,4.53158 2.09396,6.97379 -2.51912,0.28564 -4.96256,1.37523 -6.91065,3.27064 0.0243,-0.30997 0.0408,-0.6222 0.0408,-0.93835 0,-2.38662 -0.71179,-4.60928 -1.93102,-6.47067 1.74517,-1.69014 4.0992,-2.75338 6.70696,-2.83541 z m 2.21619,0.17042 c 4.37717,0.82535 7.74665,4.46047 8.16812,8.96932 -1.95313,-1.41609 -4.24396,-2.16008 -6.55352,-2.23588 0.1385,-2.31979 -0.39815,-4.67253 -1.6146,-6.73344 z m -10.10662,4.03721 c 0.87393,1.49583 1.3763,3.23688 1.3763,5.09845 0,2.19996 -0.70063,4.23169 -1.88892,5.88879 -0.87407,-1.49594 -1.37696,-3.23669 -1.37696,-5.09845 0,-2.20004 0.70122,-4.23178 1.88958,-5.88879 z m -12.63307,3.29645 c 0.26066,0 0.5215,0.0125 0.78149,0.0326 0.28562,2.51952 1.37599,4.96299 3.27204,6.91133 -0.3102,-0.0245 -0.62266,-0.0407 -0.93904,-0.0407 -2.38643,0 -4.6086,0.712 -6.46998,1.93101 -1.69057,-1.74524 -2.75458,-4.09909 -2.83679,-6.70695 1.81897,-1.41638 4.00478,-2.12725 6.19228,-2.12724 z m 2.56724,0.33337 c 1.67575,0.43979 3.26205,1.31544 4.57834,2.63173 1.55561,1.55563 2.49656,3.4877 2.82793,5.49973 -1.67592,-0.43973 -3.26254,-1.31525 -4.57901,-2.63173 -1.55554,-1.55551 -2.49583,-3.48786 -2.82726,-5.49973 z m 21.55688,0.7883 c 2.4295,0.0387 4.8462,0.95075 6.74837,2.73696 -0.31875,2.56039 -1.59051,4.81832 -3.45124,6.4116 -1.98316,-1.57923 -4.48149,-2.53616 -7.19922,-2.57333 0.2366,-0.20199 0.46889,-0.41118 0.69256,-0.63484 1.68754,-1.68752 2.75541,-3.76217 3.20953,-5.94039 z m -1.80743,0.13308 c -0.4398,1.67566 -1.31543,3.26208 -2.63172,4.57836 -1.55544,1.55543 -3.48729,2.49576 -5.49907,2.82726 0.43983,-1.67555 1.31483,-3.26146 2.63106,-4.57767 1.55547,-1.55547 3.48784,-2.49646 5.49973,-2.82795 z m -30.10526,2.41988 c 0.38011,2.38218 1.47315,4.52813 3.05268,6.21469 -1.73819,1.54231 -3.02309,3.58513 -3.6203,5.90237 -2.51109,-3.6786 -2.32232,-8.63094 0.56762,-12.11706 z m 40.1073,1.87127 c 2.51154,3.67865 2.32316,8.6314 -0.56696,12.11773 -0.38004,-2.38234 -1.47377,-4.52808 -3.05337,-6.21469 1.7385,-1.54248 3.02316,-3.58542 3.62033,-5.90304 z m -29.20424,3.09546 c 2.20009,0 4.23175,0.70117 5.88876,1.88959 -1.49581,0.87402 -3.23688,1.37629 -5.09844,1.3763 -2.19975,0 -4.2311,-0.70138 -5.88811,-1.8896 1.49581,-0.87372 3.23643,-1.37629 5.09779,-1.37629 z m 7.19922,0.35986 3.33582,-1e-5 0,3.33583 -3.33582,0 0,-3.33582 z m 9.74469,0.42979 c 2.19971,0 4.23123,0.70076 5.88811,1.88892 -1.49599,0.87401 -3.23675,1.37698 -5.09845,1.37697 -2.19992,0 -4.23117,-0.70134 -5.88811,-1.88959 1.49592,-0.87401 3.23689,-1.3763 5.09845,-1.3763 z m -23.51711,1.63702 c 1.9832,1.5793 4.48157,2.53601 7.19922,2.57333 -0.23632,0.20181 -0.46847,0.41141 -0.6919,0.63485 -1.68754,1.68753 -2.75541,3.76215 -3.20953,5.94038 -2.42939,-0.0387 -4.84623,-0.95098 -6.74837,-2.73696 0.31875,-2.56026 1.58999,-4.81834 3.45058,-6.4116 z m 30.77744,1.43536 c 1.69029,1.74511 2.75374,4.09931 2.8361,6.70696 -2.0358,1.58522 -4.53145,2.28421 -6.97381,2.09533 -0.28552,-2.51956 -1.37533,-4.96294 -3.27131,-6.91133 0.30996,0.0244 0.62221,0.0407 0.93835,0.0407 2.38674,0 4.60911,-0.7124 6.47067,-1.9317 z m -17.54143,0.17382 c -0.43979,1.67566 -1.31546,3.26208 -2.63172,4.57836 -1.55546,1.55544 -3.48728,2.49577 -5.49906,2.82727 0.43983,-1.67556 1.31483,-3.26147 2.63106,-4.57768 1.5556,-1.55563 3.48781,-2.49655 5.49972,-2.82795 z m 4.21239,0.19623 c 1.67576,0.43978 3.26206,1.31543 4.57835,2.63172 1.55564,1.55563 2.49656,3.48771 2.82796,5.49973 -1.67596,-0.43972 -3.26257,-1.31525 -4.57904,-2.63172 -1.5555,-1.55553 -2.49579,-3.48786 -2.82727,-5.49973 z m -2.14693,0.77471 c 0.87371,1.49572 1.37629,3.23641 1.37629,5.09778 0,2.19996 -0.70063,4.23168 -1.88892,5.88878 -0.87413,-1.49591 -1.37696,-3.23672 -1.37696,-5.09845 0,-2.19977 0.70136,-4.23109 1.88959,-5.88811 z m -3.58706,4.94908 c -0.0243,0.3102 -0.0407,0.62265 -0.0407,0.93903 0,2.38686 0.71213,4.60916 1.93168,6.47067 -1.7449,1.6902 -4.09889,2.75373 -6.70627,2.8361 -1.58537,-2.036 -2.2844,-4.5319 -2.09535,-6.97448 2.5194,-0.28549 4.96231,-1.37559 6.91065,-3.27132 z m 6.69747,0.31233 c 0.20198,0.23659 0.41119,0.4689 0.63482,0.69256 1.68771,1.68769 3.76262,2.75549 5.94109,3.20954 -0.0387,2.42908 -0.95072,4.84565 -2.73629,6.74768 -2.56063,-0.31857 -4.8194,-1.58926 -6.41297,-3.44989 1.57935,-1.98339 2.53619,-4.48191 2.57335,-7.19989 z m -21.89778,0.79305 c 1.9532,1.41579 4.2441,2.16018 6.55352,2.23588 -0.13846,2.32003 0.39853,4.67306 1.6153,6.73411 -4.3778,-0.82499 -7.74727,-4.46065 -8.16882,-8.96999 z m 36.92899,1.72393 c -0.82498,4.37722 -4.4598,7.7464 -8.96862,8.16812 1.41561,-1.95311 2.15952,-4.24359 2.2352,-6.55283 2.31985,0.13835 4.67256,-0.39864 6.73342,-1.61529 z m -18.7826,5.96007 c 1.54257,1.73816 3.58557,3.02261 5.90306,3.61964 -3.67867,2.51164 -8.63138,2.32322 -12.11774,-0.56695 2.38212,-0.38008 4.52826,-1.47314 6.21468,-3.05269 z"
         style="opacity:1;fill:url(#radialGradient9692);fill-opacity:1;fill-rule:evenodd;stroke:none;stroke-width:0;stroke-miterlimit:4;stroke-dasharray:none;stroke-opacity:1"
         id="path9688"
         inkscape:connector-curvature="0" />
    </g>
    <path
       style="fill:#024131;fill-opacity:1;stroke:#b3b3b3;stroke-width:0.9999879;stroke-miterlimit:4;stroke-dasharray:none"
       inkscape:connector-curvature="0"
       id="path10010"
       d="m 215.42137,789.80572 292.39176,0 c 6.55198,0 13.18688,6.59406 13.18688,13.22984 l 0,175.2433 c 0,9.89108 -6.6349,16.52686 -13.18688,16.52686 l -292.39176,0 c -9.86942,0 -16.42138,-6.63578 -16.42138,-16.52686 l 0,-175.2433 c 0,-6.63578 6.55196,-13.22984 16.42138,-13.22984 z" />
    <path
       d="m 215.42137,789.80572 292.39176,0 c 6.55198,0 13.18688,6.59406 13.18688,13.22984 l 0,175.2433 c 0,9.89108 -6.6349,16.52686 -13.18688,16.52686 l -292.39176,0 c -9.86942,0 -16.42138,-6.63578 -16.42138,-16.52686 l 0,-175.2433 c 0,-6.63578 6.55196,-13.22984 16.42138,-13.22984 z"
       id="path10012"
       inkscape:connector-curvature="0"
       style="fill:none;stroke:#b3b3b3;stroke-width:0.9999879;stroke-miterlimit:4;stroke-dasharray:none" />
    <g
       transform="matrix(0.53688648,0,0,0.53688648,182.52174,744.11073)"
       style="fill:#aa934e;fill-opacity:1"
       id="g10014">
      <text
         xml:space="preserve"
         style="font-style:normal;font-variant:normal;font-weight:900;font-stretch:normal;font-size:79.60463715px;line-height:125%;font-family:'Noto Sans CJK TC';-inkscape-font-specification:'Noto Sans CJK TC, Heavy';text-align:start;letter-spacing:0px;word-spacing:0px;writing-mode:lr-tb;text-anchor:start;fill:#aa934e;fill-opacity:1;stroke:none;stroke-width:1px;stroke-linecap:butt;stroke-linejoin:miter;stroke-opacity:1"
         x="224.08183"
         y="295.95062"
         id="text10016"
         sodipodi:linespacing="125%"
         transform="scale(1.0218268,0.97863944)"><tspan
           sodipodi:role="line"
           id="tspan10018"
           x="224.08183"
           y="295.95062">遠雄文青</tspan></text>
      <text
         sodipodi:linespacing="125%"
         id="text10020"
         y="338.99515"
         x="223.94518"
         style="font-style:normal;font-variant:normal;font-weight:bold;font-stretch:normal;font-size:30.33986282px;line-height:125%;font-family:'Noto Sans CJK TC';-inkscape-font-specification:'Noto Sans CJK TC, Bold';text-align:start;letter-spacing:0px;word-spacing:0px;writing-mode:lr-tb;text-anchor:start;fill:#aa934e;fill-opacity:1;stroke:none;stroke-width:1px;stroke-linecap:butt;stroke-linejoin:miter;stroke-opacity:1"
         xml:space="preserve"
         transform="scale(1.0230669,0.97745318)"><tspan
           sodipodi:role="line"
           id="tspan10022"
           x="223.94518"
           y="338.99515">便 利 生 活‧快 捷 到 家</tspan></text>
    </g>
    <g
       id="g10040"
       transform="translate(202.03051,20.203051)">
      <circle
         transform="matrix(0.3476373,0,0,0.3476373,-597.37555,573.7641)"
         style="opacity:1;fill:#290e06;fill-opacity:1;fill-rule:nonzero;stroke:none;stroke-width:5.43196535;stroke-linecap:round;stroke-linejoin:round;stroke-miterlimit:4;stroke-dasharray:none;stroke-dashoffset:53;stroke-opacity:1;filter:url(#filter11607)"
         id="circle10034"
         cx="1903.3295"
         cy="864.00073"
         r="84.971458" />
      <path
         inkscape:connector-curvature="0"
         id="path10036"
         style="opacity:1;fill:url(#radialGradient10038);fill-opacity:1;fill-rule:evenodd;stroke:none;stroke-width:0;stroke-miterlimit:4;stroke-dasharray:none;stroke-opacity:1"
         d="m 35.72638,874.12298 2.35896,-2.35896 2.35896,2.35896 -2.35896,2.35897 z m 52.382787,10e-6 2.35899,-2.35897 2.35897,2.35897 -2.35897,2.35896 z m -26.17539,-26.21166 2.359,-2.35897 2.35896,2.35897 -2.35896,2.35897 z m 0,52.40032 2.35896,-2.35897 2.35897,2.35897 -2.35897,2.35897 z m 2.359,-56.67211 c -16.824357,0 -30.483447,13.6591 -30.483447,30.48345 0,16.82435 13.65909,30.48345 30.483447,30.48345 16.82432,-10e-6 30.48344,-13.6591 30.48344,-30.48345 0,-16.82435 -13.65912,-30.48345 -30.48344,-30.48345 z m 0,1.88824 c 15.8038,0 28.59518,12.7914 28.59518,28.59521 0,15.80381 -12.79138,28.59521 -28.59518,28.59521 -15.803837,0 -28.595217,-12.79141 -28.595217,-28.59521 0,-15.80381 12.79138,-28.59521 28.595217,-28.59521 z m 0.55865,4.7769 c -2.87996,0 -5.75868,1.04322 -8.018737,3.12534 -0.20427,-0.0105 -0.40969,-0.0163 -0.61653,-0.0163 -6.36576,0 -11.57188,5.0485 -11.83052,11.35186 -0.15202,0.13711 -0.30175,0.27864 -0.44814,0.42503 -4.50096,4.50098 -4.61217,11.75117 -0.33881,16.39123 -0.0108,0.20494 -0.0163,0.41102 -0.0163,0.61855 0,6.36599 5.04953,11.57221 11.3532,11.83053 0.13711,0.15202 0.27798,0.30174 0.42437,0.44812 4.501407,4.50143 11.752567,4.61279 16.392587,0.33813 0.20451,0.0106 0.41011,0.0163 0.61719,0.0163 6.36601,0 11.5716,-5.04888 11.82986,-11.35253 0.15202,-0.13712 0.30178,-0.27797 0.44817,-0.42435 4.50117,-4.50118 4.61277,-11.75188 0.33881,-16.39192 0.0104,-0.20472 0.0163,-0.41057 0.0163,-0.61787 0,-6.36532 -5.04843,-11.57054 -11.35119,-11.82985 -0.13736,-0.15227 -0.27912,-0.30219 -0.42572,-0.44881 -2.30887,-2.30886 -5.3418,-3.46347 -8.37451,-3.46347 z m 0,1.72732 c 2.28593,0 4.57063,0.7747 6.43602,2.32143 -2.38232,0.37994 -4.52812,1.47318 -6.21468,3.05269 -1.5426,-1.7384 -3.58595,-3.02265 -5.90371,-3.61964 1.71065,-1.16806 3.69583,-1.75448 5.68237,-1.75448 z m -9.592627,3.1654 c -1.41583,1.95325 -2.16022,4.24403 -2.23587,6.55351 -0.23705,-0.0141 -0.47421,-0.0238 -0.71158,-0.0238 -2.0861,-1e-5 -4.1715,0.54656 -6.02187,1.63905 0.82494,-4.37745 4.46029,-7.74706 8.96932,-8.16879 z m 2.222957,0.0353 c 2.56049,0.31856 4.81958,1.58938 6.41297,3.44989 -1.57952,1.98319 -2.53667,4.4819 -2.57401,7.19989 -0.2018,-0.23633 -0.41139,-0.46844 -0.63485,-0.69188 -1.68771,-1.68773 -3.762447,-2.75612 -5.941047,-3.21021 0.0388,-2.4293 0.95103,-4.84561 2.736937,-6.74769 z m 15.35309,0.71768 c 1.58488,2.03583 2.28301,4.53158 2.09396,6.97379 -2.51912,0.28564 -4.96256,1.37523 -6.91065,3.27064 0.0243,-0.30997 0.0408,-0.6222 0.0408,-0.93835 0,-2.38662 -0.71179,-4.60928 -1.93102,-6.47067 1.74517,-1.69014 4.0992,-2.75338 6.70696,-2.83541 z m 2.21619,0.17042 c 4.37717,0.82535 7.74665,4.46047 8.16812,8.96932 -1.95313,-1.41609 -4.24396,-2.16008 -6.55352,-2.23588 0.1385,-2.31979 -0.39815,-4.67253 -1.6146,-6.73344 z m -10.10662,4.03721 c 0.87393,1.49583 1.3763,3.23688 1.3763,5.09845 0,2.19996 -0.70063,4.23169 -1.88892,5.88879 -0.87407,-1.49594 -1.37696,-3.23669 -1.37696,-5.09845 0,-2.20004 0.70122,-4.23178 1.88958,-5.88879 z m -12.633067,3.29645 c 0.26066,0 0.5215,0.0125 0.78149,0.0326 0.28562,2.51952 1.37599,4.96299 3.27204,6.91133 -0.3102,-0.0245 -0.62266,-0.0407 -0.93904,-0.0407 -2.38643,0 -4.6086,0.712 -6.46998,1.93101 -1.69057,-1.74524 -2.75458,-4.09909 -2.83679,-6.70695 1.81897,-1.41638 4.00478,-2.12725 6.19228,-2.12724 z m 2.56724,0.33337 c 1.67575,0.43979 3.262047,1.31544 4.578337,2.63173 1.55561,1.55563 2.49656,3.4877 2.82793,5.49973 -1.67592,-0.43973 -3.26254,-1.31525 -4.57901,-2.63173 -1.555537,-1.55551 -2.495827,-3.48786 -2.827257,-5.49973 z m 21.556877,0.7883 c 2.4295,0.0387 4.8462,0.95075 6.74837,2.73696 -0.31875,2.56039 -1.59051,4.81832 -3.45124,6.4116 -1.98316,-1.57923 -4.48149,-2.53616 -7.19922,-2.57333 0.2366,-0.20199 0.46889,-0.41118 0.69256,-0.63484 1.68754,-1.68752 2.75541,-3.76217 3.20953,-5.94039 z m -1.80743,0.13308 c -0.4398,1.67566 -1.31543,3.26208 -2.63172,4.57836 -1.55544,1.55543 -3.48729,2.49576 -5.49907,2.82726 0.43983,-1.67555 1.31483,-3.26146 2.63106,-4.57767 1.55547,-1.55547 3.48784,-2.49646 5.49973,-2.82795 z m -30.105257,2.41988 c 0.38011,2.38218 1.47315,4.52813 3.05268,6.21469 -1.73819,1.54231 -3.02309,3.58513 -3.6203,5.90237 -2.51109,-3.6786 -2.32232,-8.63094 0.56762,-12.11706 z m 40.107297,1.87127 c 2.51154,3.67865 2.32316,8.6314 -0.56696,12.11773 -0.38004,-2.38234 -1.47377,-4.52808 -3.05337,-6.21469 1.7385,-1.54248 3.02316,-3.58542 3.62033,-5.90304 z m -29.204237,3.09546 c 2.200087,0 4.231747,0.70117 5.888757,1.88959 -1.49581,0.87402 -3.23688,1.37629 -5.098437,1.3763 -2.19975,0 -4.2311,-0.70138 -5.88811,-1.8896 1.49581,-0.87372 3.23643,-1.37629 5.09779,-1.37629 z m 7.199217,0.35986 3.33582,-10e-6 0,3.33583 -3.33582,0 0,-3.33582 z m 9.74469,0.42979 c 2.19971,0 4.23123,0.70076 5.88811,1.88892 -1.49599,0.87401 -3.23675,1.37698 -5.09845,1.37697 -2.19992,0 -4.23117,-0.70134 -5.88811,-1.88959 1.49592,-0.87401 3.23689,-1.3763 5.09845,-1.3763 z m -23.517107,1.63702 c 1.9832,1.5793 4.48157,2.53601 7.19922,2.57333 -0.23632,0.20181 -0.46847,0.41141 -0.6919,0.63485 -1.68754,1.68753 -2.75541,3.76215 -3.20953,5.94038 -2.42939,-0.0387 -4.84623,-0.95098 -6.74837,-2.73696 0.31875,-2.56026 1.58999,-4.81834 3.45058,-6.4116 z m 30.777437,1.43536 c 1.69029,1.74511 2.75374,4.09931 2.8361,6.70696 -2.0358,1.58522 -4.53145,2.28421 -6.97381,2.09533 -0.28552,-2.51956 -1.37533,-4.96294 -3.27131,-6.91133 0.30996,0.0244 0.62221,0.0407 0.93835,0.0407 2.38674,0 4.60911,-0.7124 6.47067,-1.9317 z m -17.54143,0.17382 c -0.43979,1.67566 -1.31546,3.26208 -2.63172,4.57836 -1.55546,1.55544 -3.487277,2.49577 -5.499057,2.82727 0.43983,-1.67556 1.31483,-3.26147 2.63106,-4.57768 1.555597,-1.55563 3.487807,-2.49655 5.499717,-2.82795 z m 4.21239,0.19623 c 1.67576,0.43978 3.26206,1.31543 4.57835,2.63172 1.55564,1.55563 2.49656,3.48771 2.82796,5.49973 -1.67596,-0.43972 -3.26257,-1.31525 -4.57904,-2.63172 -1.5555,-1.55553 -2.49579,-3.48786 -2.82727,-5.49973 z m -2.14693,0.77471 c 0.87371,1.49572 1.37629,3.23641 1.37629,5.09778 0,2.19996 -0.70063,4.23168 -1.88892,5.88878 -0.87413,-1.49591 -1.37696,-3.23672 -1.37696,-5.09845 0,-2.19977 0.70136,-4.23109 1.88959,-5.88811 z m -3.58706,4.94908 c -0.0243,0.3102 -0.0407,0.62265 -0.0407,0.93903 0,2.38686 0.71213,4.60916 1.93168,6.47067 -1.7449,1.6902 -4.09889,2.75373 -6.706267,2.8361 -1.58537,-2.036 -2.2844,-4.5319 -2.09535,-6.97448 2.5194,-0.28549 4.962307,-1.37559 6.910647,-3.27132 z m 6.69747,0.31233 c 0.20198,0.23659 0.41119,0.4689 0.63482,0.69256 1.68771,1.68769 3.76262,2.75549 5.94109,3.20954 -0.0387,2.42908 -0.95072,4.84565 -2.73629,6.74768 -2.56063,-0.31857 -4.8194,-1.58926 -6.41297,-3.44989 1.57935,-1.98339 2.53619,-4.48191 2.57335,-7.19989 z m -21.897777,0.79305 c 1.9532,1.41579 4.2441,2.16018 6.55352,2.23588 -0.13846,2.32003 0.39853,4.67306 1.6153,6.73411 -4.3778,-0.82499 -7.74727,-4.46065 -8.16882,-8.96999 z m 36.928987,1.72393 c -0.82498,4.37722 -4.4598,7.7464 -8.96862,8.16812 1.41561,-1.95311 2.15952,-4.24359 2.2352,-6.55283 2.31985,0.13835 4.67256,-0.39864 6.73342,-1.61529 z m -18.7826,5.96007 c 1.54257,1.73816 3.58557,3.02261 5.90306,3.61964 -3.67867,2.51164 -8.63138,2.32322 -12.11774,-0.56695 2.38212,-0.38008 4.52826,-1.47314 6.21468,-3.05269 z" />
    </g>
  </g>
</svg>
