<?xml version="1.0" encoding="UTF-8" standalone="no"?>
<!-- Created with Inkscape (http://www.inkscape.org/) -->

<svg
   xmlns:dc="http://purl.org/dc/elements/1.1/"
   xmlns:cc="http://creativecommons.org/ns#"
   xmlns:rdf="http://www.w3.org/1999/02/22-rdf-syntax-ns#"
   xmlns:svg="http://www.w3.org/2000/svg"
   xmlns="http://www.w3.org/2000/svg"
   xmlns:xlink="http://www.w3.org/1999/xlink"
   xmlns:sodipodi="http://sodipodi.sourceforge.net/DTD/sodipodi-0.dtd"
   xmlns:inkscape="http://www.inkscape.org/namespaces/inkscape"
   width="350"
   height="100"
   id="svg2"
   sodipodi:version="0.32"
   inkscape:version="0.91 r13725"
   sodipodi:docname="farhip-park-id.svg"
   inkscape:output_extension="org.inkscape.output.svg.inkscape"
   version="1.0"
   sodipodi:modified="true"
   inkscape:export-filename="farhip-park-id.png"
   inkscape:export-xdpi="135"
   inkscape:export-ydpi="135">
  <defs
     id="defs4">
    <g
       id="s">
      <g
         id="c">
        <path
           transform="matrix(0.9510565,0.309017,-0.309017,0.9510565,0,-1)"
           d="M 0,0 0,1 0.5,1 0,0 Z"
           id="t"
           inkscape:connector-curvature="0" />
        <use
           id="use3302"
           transform="scale(-1,1)"
           xlink:href="#t"
           x="0"
           y="0"
           width="744.09448"
           height="1052.3622" />
      </g>
      <g
         id="a">
        <use
           id="use3305"
           transform="matrix(0.309017,0.9510565,-0.9510565,0.309017,0,0)"
           xlink:href="#c"
           x="0"
           y="0"
           width="744.09448"
           height="1052.3622" />
        <use
           id="use3307"
           transform="matrix(-0.809017,0.5877853,-0.5877853,-0.809017,0,0)"
           xlink:href="#c"
           x="0"
           y="0"
           width="744.09448"
           height="1052.3622" />
      </g>
      <use
         id="use3309"
         transform="scale(-1,1)"
         xlink:href="#a"
         x="0"
         y="0"
         width="744.09448"
         height="1052.3622" />
    </g>
    <filter
       id="filter11334"
       inkscape:label="Drop Shadow"
       style="color-interpolation-filters:sRGB">
      <feFlood
         id="feFlood11336"
         result="flood"
         flood-color="rgb(0,0,0)"
         flood-opacity="1" />
      <feComposite
         id="feComposite11338"
         result="composite1"
         operator="in"
         in2="SourceGraphic"
         in="flood" />
      <feGaussianBlur
         id="feGaussianBlur11340"
         result="blur"
         stdDeviation="3.7"
         in="composite1" />
      <feOffset
         id="feOffset11342"
         result="offset"
         dy="5"
         dx="5" />
      <feComposite
         id="feComposite11344"
         result="composite2"
         operator="over"
         in2="offset"
         in="SourceGraphic" />
    </filter>
    <filter
       id="filter11469"
       inkscape:label="Drop Shadow"
       style="color-interpolation-filters:sRGB">
      <feFlood
         id="feFlood11471"
         result="flood"
         flood-color="rgb(0,0,0)"
         flood-opacity="1" />
      <feComposite
         id="feComposite11473"
         result="composite1"
         operator="in"
         in2="SourceGraphic"
         in="flood" />
      <feGaussianBlur
         id="feGaussianBlur11475"
         result="blur"
         stdDeviation="3.7"
         in="composite1" />
      <feOffset
         id="feOffset11477"
         result="offset"
         dy="5"
         dx="5" />
      <feComposite
         id="feComposite11479"
         result="composite2"
         operator="over"
         in2="offset"
         in="SourceGraphic" />
    </filter>
    <filter
       id="filter11607"
       inkscape:label="Drop Shadow"
       style="color-interpolation-filters:sRGB">
      <feFlood
         id="feFlood11609"
         result="flood"
         flood-color="rgb(0,0,0)"
         flood-opacity="1" />
      <feComposite
         id="feComposite11611"
         result="composite1"
         operator="in"
         in2="SourceGraphic"
         in="flood" />
      <feGaussianBlur
         id="feGaussianBlur11613"
         result="blur"
         stdDeviation="3.7"
         in="composite1" />
      <feOffset
         id="feOffset11615"
         result="offset"
         dy="5"
         dx="5" />
      <feComposite
         id="feComposite11617"
         result="composite2"
         operator="over"
         in2="offset"
         in="SourceGraphic" />
    </filter>
    <radialGradient
       inkscape:collect="always"
       xlink:href="#linearGradient10934"
       id="radialGradient11589"
       gradientUnits="userSpaceOnUse"
       gradientTransform="matrix(-4.2080419,-4.3872847,0.72169553,-0.69221062,479.93293,444.04981)"
       cx="-107.56053"
       cy="636.57196"
       fx="-107.56053"
       fy="636.57196"
       r="87.670425" />
    <linearGradient
       id="linearGradient10934"
       inkscape:collect="always">
      <stop
         id="stop10936"
         offset="0"
         style="stop-color:#ffffff;stop-opacity:1" />
      <stop
         id="stop10938"
         offset="1"
         style="stop-color:#c98510;stop-opacity:1" />
    </linearGradient>
    <filter
       style="color-interpolation-filters:sRGB"
       inkscape:label="Drop Shadow"
       id="filter11607-4">
      <feFlood
         flood-opacity="1"
         flood-color="rgb(0,0,0)"
         result="flood"
         id="feFlood11609-6" />
      <feComposite
         in="flood"
         in2="SourceGraphic"
         operator="in"
         result="composite1"
         id="feComposite11611-3" />
      <feGaussianBlur
         in="composite1"
         stdDeviation="3.7"
         result="blur"
         id="feGaussianBlur11613-1" />
      <feOffset
         dx="5"
         dy="5"
         result="offset"
         id="feOffset11615-6" />
      <feComposite
         in="SourceGraphic"
         in2="offset"
         operator="over"
         result="composite2"
         id="feComposite11617-8" />
    </filter>
    <radialGradient
       inkscape:collect="always"
       xlink:href="#linearGradient10934"
       id="radialGradient11601"
       gradientUnits="userSpaceOnUse"
       gradientTransform="matrix(-2.3015512,-2.3015512,0.70710678,-0.70710678,-505.79709,436.8876)"
       cx="-107.56053"
       cy="636.57196"
       fx="-107.56053"
       fy="636.57196"
       r="87.670425" />
    <radialGradient
       inkscape:collect="always"
       xlink:href="#linearGradient10934"
       id="radialGradient8690"
       gradientUnits="userSpaceOnUse"
       gradientTransform="matrix(-2.3015512,-2.3015512,0.70710678,-0.70710678,-505.79709,436.8876)"
       cx="-107.56053"
       cy="636.57196"
       fx="-107.56053"
       fy="636.57196"
       r="87.670425" />
  </defs>
  <sodipodi:namedview
     id="base"
     pagecolor="#ffffff"
     bordercolor="#666666"
     borderopacity="1.0"
     inkscape:pageopacity="0.0"
     inkscape:pageshadow="2"
     inkscape:zoom="0.8236951"
     inkscape:cx="-191.50166"
     inkscape:cy="-76.441852"
     inkscape:document-units="px"
     inkscape:current-layer="layer1"
     inkscape:window-width="1855"
     inkscape:window-height="1056"
     inkscape:window-x="65"
     inkscape:window-y="24"
     showgrid="true"
     showguides="true"
     inkscape:guide-bbox="true"
     width="346.71px"
     height="79.29px"
     inkscape:window-maximized="1"
     fit-margin-top="0"
     fit-margin-left="0"
     fit-margin-right="0"
     fit-margin-bottom="0" />
  <metadata
     id="metadata7">
    <rdf:RDF>
      <cc:Work
         rdf:about="">
        <dc:format>image/svg+xml</dc:format>
        <dc:type
           rdf:resource="http://purl.org/dc/dcmitype/StillImage" />
        <dc:title />
      </cc:Work>
    </rdf:RDF>
  </metadata>
  <g
     inkscape:label="Capa 1"
     inkscape:groupmode="layer"
     id="layer1"
     transform="translate(-9.5244644,-3.2015999)">
    <path
       style="font-style:normal;font-weight:normal;font-size:67.68917084px;font-family:'Bitstream Vera Sans';fill:#000000;fill-opacity:1;stroke:none;stroke-width:1px;stroke-linecap:butt;stroke-linejoin:miter;stroke-opacity:1"
       d="m -361.9585,166.9467 0,-6.18663 19.72675,-22.50542 c 0.76137,-0.88377 1.25742,-1.69392 1.48816,-2.43046 0.2307,-0.73647 0.34606,-1.45193 0.34609,-2.14638 -3e-5,-1.59923 -0.62298,-3.08801 -1.86885,-4.46636 -1.24593,-1.37827 -2.94173,-2.06743 -5.08743,-2.06747 -1.96116,4e-5 -3.63966,0.5945 -5.03552,1.78339 -1.39588,1.18896 -2.17456,2.81453 -2.33606,4.8767 l -7.23314,0 c 0.0231,-3.72456 1.41893,-6.86522 4.18761,-9.42197 2.76865,-2.55668 6.05644,-3.83503 9.86338,-3.83508 4.19912,5e-5 7.70033,1.28892 10.50363,3.86664 2.80325,2.5778 4.20488,5.68689 4.20491,9.32728 -3e-5,3.11439 -1.00367,5.80788 -3.01092,8.08049 l -16.23132,18.55987 19.24224,0 0,6.5654 -28.75953,0 z m 55.89247,-13.22549 0,-19.53837 c -2e-5,-2.20947 -0.65181,-3.93499 -1.95537,-5.17656 -1.3036,-1.24149 -3.01671,-1.86226 -5.13933,-1.8623 -2.14574,4e-5 -3.86462,0.62081 -5.15665,1.8623 -1.29206,1.24157 -1.93808,2.96709 -1.93807,5.17656 l 0,19.53837 c -1e-5,2.23056 0.64601,3.96134 1.93807,5.19235 1.29203,1.23101 3.01091,1.84652 5.15665,1.84651 2.12262,10e-6 3.83573,-0.6155 5.13933,-1.84651 1.30356,-1.23101 1.95535,-2.96179 1.95537,-5.19235 l 0,0 z m -21.42256,0.37877 0,-20.29591 c 0,-4.22959 1.45355,-7.49651 4.36065,-9.80075 2.90709,-2.30415 6.22949,-3.45625 9.96721,-3.4563 3.7146,5e-5 7.03124,1.15215 9.94989,3.4563 2.91861,2.30424 4.37793,5.57116 4.37796,9.80075 l 0,20.29591 c -3e-5,4.22964 -1.45935,7.49129 -4.37796,9.78497 -2.91865,2.29368 -6.23529,3.44052 -9.94989,3.44052 -3.73772,0 -7.06012,-1.14684 -9.96721,-3.44052 -2.9071,-2.29368 -4.36065,-5.55533 -4.36065,-9.78497 l 0,0 z m 55.47718,-0.37877 0,-19.53837 c -2e-5,-2.20947 -0.65182,-3.93499 -1.95537,-5.17656 -1.3036,-1.24149 -3.01671,-1.86226 -5.13934,-1.8623 -2.14573,4e-5 -3.86461,0.62081 -5.15665,1.8623 -1.29205,1.24157 -1.93807,2.96709 -1.93806,5.17656 l 0,19.53837 c -1e-5,2.23056 0.64601,3.96134 1.93806,5.19235 1.29204,1.23101 3.01092,1.84652 5.15665,1.84651 2.12263,10e-6 3.83574,-0.6155 5.13934,-1.84651 1.30355,-1.23101 1.95535,-2.96179 1.95537,-5.19235 l 0,0 z m -21.42256,0.37877 0,-20.29591 c -1e-5,-4.22959 1.45354,-7.49651 4.36065,-9.80075 2.90708,-2.30415 6.22949,-3.45625 9.9672,-3.4563 3.71461,5e-5 7.03124,1.15215 9.9499,3.4563 2.9186,2.30424 4.37793,5.57116 4.37796,9.80075 l 0,20.29591 c -3e-5,4.22964 -1.45936,7.49129 -4.37796,9.78497 -2.91866,2.29368 -6.23529,3.44052 -9.9499,3.44052 -3.73771,0 -7.06012,-1.14684 -9.9672,-3.44052 -2.90711,-2.29368 -4.36066,-5.55533 -4.36065,-9.78497 l 0,0 z m 41.14931,-20.35904 c -1e-5,2.16745 0.74408,3.8088 2.23224,4.92405 1.48815,1.1153 3.15512,1.67294 5.00092,1.67291 1.84576,3e-5 3.51272,-0.55761 5.0009,-1.67291 1.48813,-1.11525 2.23221,-2.7566 2.23224,-4.92405 -3e-5,-2.14634 -0.74411,-3.78243 -2.23224,-4.90826 -1.48818,-1.12576 -3.15514,-1.68866 -5.0009,-1.6887 -1.8458,4e-5 -3.51277,0.56294 -5.00092,1.6887 -1.48816,1.12583 -2.23225,2.76192 -2.23224,4.90826 l 0,0 z m -8.13296,19.79088 c 0,-4.48212 1.98422,-7.93316 5.95264,-10.35312 -1.4997,-1.22047 -2.71676,-2.57247 -3.65118,-4.05603 -0.93443,-1.4835 -1.40164,-3.23532 -1.40164,-5.25547 0,-3.70352 1.3901,-6.84944 4.17031,-9.43776 2.78019,-2.58823 6.21218,-3.88237 10.29599,-3.88242 4.08375,5e-5 7.51574,1.29419 10.29597,3.88242 2.78018,2.58832 4.17028,5.73424 4.17031,9.43776 -3e-5,2.02015 -0.47301,3.77197 -1.41894,5.25547 -0.946,1.48356 -2.14575,2.83556 -3.59927,4.05603 3.94532,2.441 5.91799,5.89204 5.91803,10.35312 -4e-5,4.08234 -1.51703,7.40186 -4.551,9.95857 -3.03402,2.55672 -6.63906,3.83508 -10.8151,3.83508 -4.19917,0 -7.80997,-1.27836 -10.83242,-3.83508 -3.02247,-2.55671 -4.5337,-5.87623 -4.5337,-9.95857 l 0,0 z m 7.23315,-0.0631 c -1e-5,2.10431 0.81328,3.84561 2.43989,5.22391 1.62658,1.37832 3.52426,2.06748 5.69308,2.06747 2.14569,1e-5 4.04337,-0.68915 5.69306,-2.06747 1.64965,-1.3783 2.47448,-3.1196 2.4745,-5.22391 -2e-5,-2.10427 -0.82485,-3.85084 -2.4745,-5.23969 -1.64969,-1.38881 -3.54737,-2.08323 -5.69306,-2.08325 -2.16882,2e-5 -4.0665,0.69444 -5.69308,2.08325 -1.62661,1.38885 -2.4399,3.13542 -2.43989,5.23969 l 0,0 z m 44.47172,13.47801 0,-5.80785 22.91072,-33.99487 -21.97629,0 0,-6.18662 31.32055,0 0,5.23969 -22.97994,34.18425 22.97994,0 0,6.5654 -32.25498,0 z m 56.23857,-18.7177 0,-6.59696 17.92713,0 0,9.37463 c -5e-5,4.56633 -1.74199,8.42771 -5.22586,11.58414 -3.48394,3.15644 -7.74077,4.73466 -12.77048,4.73466 -3.96845,0 -7.29661,-0.86802 -9.98452,-2.60406 -2.68792,-1.73604 -4.62022,-3.61412 -5.79689,-5.63425 -0.83061,-1.34674 -1.40741,-2.81974 -1.73042,-4.41902 -0.32301,-1.59925 -0.48452,-5.16602 -0.48452,-10.70033 0,-5.53427 0.16151,-9.10104 0.48452,-10.70034 0.32301,-1.59922 0.89981,-3.07223 1.73042,-4.41901 1.17667,-1.99904 3.10897,-3.88238 5.79689,-5.65003 2.68791,-1.76756 6.01607,-2.65136 9.98452,-2.65141 4.77592,5e-5 8.72704,1.34153 11.85336,4.02446 3.12625,2.68302 5.08162,5.8868 5.86611,9.61136 l -8.06375,0 c -0.62298,-1.76757 -1.78236,-3.31422 -3.47814,-4.63996 -1.69583,-1.32567 -3.75502,-1.98852 -6.17758,-1.98856 -1.79966,4e-5 -3.35703,0.33672 -4.67214,1.01006 -1.31512,0.67341 -2.35337,1.452 -3.11475,2.33576 -0.99211,1.17844 -1.66697,2.47258 -2.02458,3.88243 -0.35763,1.4099 -0.53644,4.47165 -0.53643,9.18524 -1e-5,4.73468 0.1788,7.80694 0.53643,9.21681 0.35761,1.40988 1.03247,2.68298 2.02458,3.81929 0.76138,0.9259 1.79963,1.72027 3.11475,2.38311 1.31511,0.66286 2.87248,0.99429 4.67214,0.99428 2.90707,1e-5 5.35849,-0.90484 7.35427,-2.71454 1.99571,-1.80968 2.99359,-4.16649 2.99362,-7.07043 l 0,-2.36733 -10.27868,0 z m 23.77594,18.7177 0,-5.80785 22.91073,-33.99487 -21.9763,0 0,-6.18662 31.320553,0 0,5.23969 -22.979943,34.18425 22.979943,0 0,6.5654 -32.254983,0 z"
       id="text3621"
       inkscape:connector-curvature="0" />
    <g
       id="g8571"
       transform="translate(-1400.7685,-138.9202)">
      <circle
         style="opacity:1;fill:#290e06;fill-opacity:1;fill-rule:nonzero;stroke:none;stroke-width:5.43196535;stroke-linecap:round;stroke-linejoin:round;stroke-miterlimit:4;stroke-dasharray:none;stroke-dashoffset:53;stroke-opacity:1;filter:url(#filter11607-4)"
         id="circle11595"
         cx="1391.9633"
         cy="475.30655"
         r="84.971458" />
      <path
         inkscape:connector-curvature="0"
         id="path11587"
         style="opacity:1;fill:url(#radialGradient11589);fill-opacity:1;fill-rule:evenodd;stroke:none;stroke-width:0;stroke-miterlimit:4;stroke-dasharray:none;stroke-opacity:1"
         d="m 1309.7903,475.30654 6.7857,-6.78572 6.7857,6.78572 -6.7857,6.78571 z m 150.6823,2e-5 6.7858,-6.78573 6.7857,6.78572 -6.7857,6.78571 z m -75.2951,-75.39945 6.7858,-6.78572 6.7857,6.78572 -6.7857,6.78571 z m 0,150.73273 6.7857,-6.7857 6.7857,6.7857 -6.7857,6.78573 z m 6.7858,-163.02079 c -48.3963,0 -87.6875,39.29124 -87.6875,87.68751 0,48.39626 39.2912,87.6875 87.6875,87.6875 48.3962,-10e-6 87.6875,-39.29124 87.6875,-87.6875 0,-48.39627 -39.2913,-87.68752 -87.6875,-87.68751 z m 0,5.43164 c 45.4606,0 82.2558,36.79525 82.2558,82.25587 0,45.46061 -36.7952,82.25586 -82.2558,82.25586 -45.4607,0 -82.2559,-36.79526 -82.2559,-82.25585 0,-45.46064 36.7952,-82.25588 82.2559,-82.25588 z m 1.607,13.74103 c -8.2844,10e-6 -16.5652,3.00088 -23.0664,8.99023 -0.5876,-0.0303 -1.1785,-0.0469 -1.7735,-0.0469 -18.3115,-2e-5 -33.2872,14.5223 -34.0312,32.6543 -0.4372,0.39441 -0.868,0.80155 -1.2891,1.22263 -12.9473,12.94735 -13.2672,33.80299 -0.9746,47.1504 -0.031,0.58952 -0.047,1.18231 -0.047,1.77929 0,18.31216 14.5253,33.28817 32.6582,34.03125 0.3944,0.43727 0.7997,0.86795 1.2207,1.28904 12.9486,12.94863 33.807,13.26897 47.1543,0.97265 0.5883,0.0304 1.1797,0.0469 1.7754,0.0469 18.3122,2e-5 33.2864,-14.5234 34.0293,-32.65624 0.4373,-0.39442 0.8681,-0.79959 1.2892,-1.22068 12.9479,-12.9479 13.2689,-33.80498 0.9746,-47.15234 0.03,-0.58889 0.047,-1.18103 0.047,-1.77735 0,-18.31022 -14.5221,-33.28338 -32.6524,-34.02929 -0.395,-0.43801 -0.8029,-0.86927 -1.2246,-1.29102 -6.6416,-6.64159 -15.366,-9.96289 -24.0898,-9.96289 z m 0,4.96875 c 6.5756,0 13.1477,2.22848 18.5136,6.67773 -6.8529,1.09294 -13.0254,4.23769 -17.8769,8.78125 -4.4374,-5.00061 -10.3152,-8.69483 -16.9824,-10.41211 4.9208,-3.36001 10.6313,-5.04686 16.3457,-5.04687 z m -27.5938,9.10547 c -4.0727,5.61863 -6.214,12.20822 -6.4316,18.85156 -0.6819,-0.0407 -1.3641,-0.0684 -2.0469,-0.0684 -6.0008,-2e-5 -11.9996,1.57222 -17.3223,4.71484 2.373,-12.59202 12.8303,-22.28491 25.8008,-23.49804 z m 6.3945,0.10156 c 7.3654,0.91636 13.8638,4.57197 18.4473,9.92383 -4.5436,5.70476 -7.2969,12.89247 -7.4043,20.71093 -0.5805,-0.67983 -1.1834,-1.34751 -1.8262,-1.99023 -4.8548,-4.85486 -10.8229,-7.92816 -17.0898,-9.23437 0.1115,-6.98805 2.7357,-13.9387 7.873,-19.41016 z m 44.1641,2.06445 c 4.559,5.85621 6.5672,13.03537 6.0234,20.06055 -7.2464,0.82164 -14.2751,3.95592 -19.8789,9.4082 0.07,-0.89167 0.1172,-1.7898 0.1172,-2.69922 0,-6.86528 -2.0475,-13.25888 -5.5547,-18.61328 5.0201,-4.86181 11.7916,-7.92028 19.293,-8.15625 z m 6.375,0.49024 c 12.5912,2.37417 22.2837,12.83082 23.4961,25.80078 -5.6183,-4.07346 -12.208,-6.21359 -18.8516,-6.43164 0.3984,-6.67301 -1.1453,-13.44081 -4.6445,-19.36914 z m -29.0723,11.61328 c 2.5139,4.30285 3.959,9.31108 3.959,14.66601 0,6.3283 -2.0154,12.17269 -5.4336,16.93946 -2.5143,-4.30316 -3.9609,-9.31055 -3.9609,-14.66602 0,-6.32855 2.0171,-12.17296 5.4355,-16.93945 z m -36.3398,9.48242 c 0.7498,0 1.5001,0.0359 2.248,0.0937 0.8216,7.24756 3.9581,14.27635 9.4122,19.88086 -0.8923,-0.0704 -1.7911,-0.11719 -2.7012,-0.11719 -6.8647,2e-5 -13.2569,2.04811 -18.6113,5.55469 -4.863,-5.02031 -7.9237,-11.7913 -8.1602,-19.29297 5.2324,-4.07431 11.52,-6.11915 17.8125,-6.11914 z m 7.3848,0.95898 c 4.8204,1.26507 9.3835,3.78394 13.1699,7.57032 4.4748,4.47487 7.1815,10.03259 8.1347,15.82031 -4.8209,-1.2649 -9.3849,-3.78339 -13.1718,-7.57032 -4.4746,-4.47453 -7.1794,-10.03304 -8.1328,-15.82031 z m 62.0097,2.26758 c 6.9886,0.11139 13.9404,2.73489 19.4121,7.87305 -0.9169,7.3651 -4.5752,13.86018 -9.9277,18.44335 -5.7047,-4.54274 -12.8913,-7.29543 -20.709,-7.40233 0.6806,-0.58105 1.3488,-1.1828 1.9922,-1.82618 4.8543,-4.85424 7.9261,-10.82209 9.2324,-17.08789 z m -5.1992,0.38282 c -1.2651,4.82013 -3.7839,9.38356 -7.5703,13.16992 -4.4743,4.47431 -10.0314,7.17921 -15.8184,8.13281 1.2652,-4.81984 3.7822,-9.38181 7.5684,-13.16797 4.4744,-4.47438 10.033,-7.1812 15.8203,-8.13476 z m -86.5996,6.96093 c 1.0934,6.85249 4.2376,13.02545 8.7812,17.87695 -5,4.43656 -8.6961,10.31284 -10.414,16.97851 -7.2233,-10.5817 -6.6803,-24.82741 1.6328,-34.85546 z m 115.3711,5.38282 c 7.2246,10.58187 6.6827,24.82878 -1.6309,34.8574 -1.0932,-6.85296 -4.2394,-13.02529 -8.7832,-17.87694 5.0009,-4.43703 8.6963,-10.31369 10.4141,-16.98046 z m -84.0078,8.90429 c 6.3287,-10e-6 12.1729,2.01696 16.9394,5.43554 -4.3028,2.51415 -9.3111,3.95897 -14.666,3.959 -6.3277,0 -12.171,-2.01756 -16.9375,-5.43556 4.3028,-2.51331 9.3098,-3.95897 14.6641,-3.95898 z m 20.709,1.03515 9.5957,-1e-5 0,9.59572 -9.5957,10e-6 0,-9.59572 z m 28.0312,1.23633 c 6.3276,-10e-6 12.1714,2.01579 16.9375,5.4336 -4.3033,2.51414 -9.3107,3.96094 -14.666,3.96094 -6.3282,-2e-5 -12.1712,-2.01746 -16.9375,-5.43555 4.3031,-2.51413 9.3111,-3.95899 14.666,-3.95899 z m -67.6484,4.70899 c 5.7048,4.54296 12.8915,7.295 20.709,7.40234 -0.6798,0.58052 -1.3476,1.18346 -1.9903,1.82617 -4.8543,4.85429 -7.9261,10.82205 -9.2324,17.08788 -6.9883,-0.11136 -13.9405,-2.73555 -19.4121,-7.87303 0.9169,-7.36476 4.5737,-13.86025 9.9258,-18.44337 z m 88.5332,4.12891 c 4.8622,5.0199 7.9213,11.79191 8.1582,19.29296 -5.8561,4.56 -13.035,6.57066 -20.0606,6.02735 -0.8213,-7.24766 -3.9562,-14.27618 -9.4101,-19.88085 0.8916,0.0703 1.7898,0.11718 2.6992,0.11718 6.8656,1e-5 13.2584,-2.04927 18.6133,-5.55664 z m -50.459,0.49999 c -1.2651,4.82014 -3.784,9.38358 -7.5703,13.16994 -4.4744,4.47432 -10.0314,7.17922 -15.8184,8.1328 1.2652,-4.81984 3.7822,-9.38181 7.5684,-13.16796 4.4748,-4.47488 10.0329,-7.18149 15.8203,-8.13479 z m 12.1172,0.56446 c 4.8204,1.26508 9.3835,3.78394 13.1699,7.57032 4.4749,4.47486 7.1815,10.0326 8.1348,15.82031 -4.821,-1.2649 -9.385,-3.78341 -13.1719,-7.57031 -4.4745,-4.47456 -7.1793,-10.03306 -8.1328,-15.82032 z m -6.1758,2.22852 c 2.5133,4.30253 3.959,9.30973 3.959,14.66405 0,6.32832 -2.0154,12.17269 -5.4336,16.93946 -2.5145,-4.3031 -3.9609,-9.31065 -3.9609,-14.66602 0,-6.32776 2.0175,-12.17098 5.4355,-16.9375 z m -10.3184,14.23632 c -0.07,0.8923 -0.1171,1.79109 -0.1171,2.70117 0,6.86596 2.0485,13.25855 5.5566,18.61328 -5.0193,4.86198 -11.7907,7.92127 -19.291,8.15821 -4.5604,-5.85667 -6.5712,-13.03628 -6.0274,-20.0625 7.2472,-0.82123 14.2744,-3.95699 19.8789,-9.41016 z m 19.2657,0.89844 c 0.581,0.68056 1.1828,1.34881 1.8261,1.99218 4.8548,4.85476 10.8234,7.92633 17.0899,9.23244 -0.1114,6.98739 -2.7348,13.93881 -7.8711,19.41013 -7.3658,-0.9164 -13.8633,-4.5716 -18.4473,-9.92382 4.5431,-5.70535 7.2955,-12.8925 7.4024,-20.71093 z m -62.9903,2.28125 c 5.6185,4.07262 12.2084,6.21389 18.8516,6.43164 -0.3983,6.6737 1.1464,13.44235 4.6465,19.37109 -12.593,-2.37315 -22.2855,-12.83134 -23.4981,-25.80273 z m 106.2285,4.95898 c -2.3731,12.59136 -12.8289,22.283 -25.7988,23.4961 4.0721,-5.61822 6.212,-12.20695 6.4297,-18.84961 6.6732,0.39797 13.4409,-1.1467 19.3691,-4.64648 z m -54.0293,17.14453 c 4.4373,4.9999 10.3141,8.69471 16.9805,10.41211 -10.5819,7.22489 -24.8287,6.68289 -34.8574,-1.63086 6.8523,-1.09334 13.0258,-4.23758 17.8769,-8.78125 z" />
    </g>
    <rect
       ry="5.3568945"
       y="10.143804"
       x="-413.00549"
       height="69.192917"
       width="335.62152"
       id="rect8603"
       style="fill:#ffffff;fill-opacity:1;stroke:#000000;stroke-width:3.09279561;stroke-miterlimit:4;stroke-dasharray:none;stroke-opacity:1" />
    <path
       sodipodi:nodetypes="ccccccc"
       id="path8605"
       d="m -381.20905,10.363284 0,68.942906 -26.54136,0 c -3.12502,-0.01179 -4.71225,-1.56136 -5.14478,-4.26563 l 0.094,-59.373975 c 0.37891,-3.156621 1.97865,-5.09242 5.05076,-5.555839 l 26.54136,0.252538 z"
       style="fill:#003399;fill-opacity:1;fill-rule:evenodd;stroke:#003399;stroke-width:1px;stroke-linecap:butt;stroke-linejoin:miter;stroke-opacity:1"
       inkscape:connector-curvature="0" />
    <g
       id="g8607"
       transform="matrix(1.6138444,0,0,1.6138444,-396.74055,32.052517)"
       style="fill:#ffcc00">
      <use
         id="use8609"
         y="-6"
         xlink:href="#s"
         x="0"
         width="744.09448"
         height="1052.3622" />
      <use
         id="use8611"
         y="6"
         xlink:href="#s"
         x="0"
         width="744.09448"
         height="1052.3622" />
      <g
         id="g8613">
        <use
           id="use8615"
           x="-6"
           xlink:href="#s"
           y="0"
           width="744.09448"
           height="1052.3622" />
        <use
           id="use8617"
           transform="matrix(-0.809017,-0.5877853,0.5877853,-0.809017,-3,-5.1961524)"
           xlink:href="#s"
           x="0"
           y="0"
           width="744.09448"
           height="1052.3622" />
        <use
           id="use8619"
           transform="matrix(-0.809017,0.5877853,-0.5877853,-0.809017,-5.1961524,-3)"
           xlink:href="#s"
           x="0"
           y="0"
           width="744.09448"
           height="1052.3622" />
        <use
           id="use8621"
           transform="matrix(0.309017,0.9510565,-0.9510565,0.309017,-5.1961524,3)"
           xlink:href="#s"
           x="0"
           y="0"
           width="744.09448"
           height="1052.3622" />
        <use
           id="use8623"
           transform="matrix(0.309017,0.9510565,-0.9510565,0.309017,-3,5.1961524)"
           xlink:href="#s"
           x="0"
           y="0"
           width="744.09448"
           height="1052.3622" />
      </g>
      <g
         id="use8625"
         transform="scale(-1,1)">
        <use
           id="use8647"
           x="-6"
           xlink:href="#s"
           y="0"
           width="744.09448"
           height="1052.3622" />
        <use
           id="use8649"
           transform="matrix(-0.809017,-0.5877853,0.5877853,-0.809017,-3,-5.1961524)"
           xlink:href="#s"
           x="0"
           y="0"
           width="744.09448"
           height="1052.3622" />
        <use
           id="use8651"
           transform="matrix(-0.809017,0.5877853,-0.5877853,-0.809017,-5.1961524,-3)"
           xlink:href="#s"
           x="0"
           y="0"
           width="744.09448"
           height="1052.3622" />
        <use
           id="use8653"
           transform="matrix(0.309017,0.9510565,-0.9510565,0.309017,-5.1961524,3)"
           xlink:href="#s"
           x="0"
           y="0"
           width="744.09448"
           height="1052.3622" />
        <use
           id="use8655"
           transform="matrix(0.309017,0.9510565,-0.9510565,0.309017,-3,5.1961524)"
           xlink:href="#s"
           x="0"
           y="0"
           width="744.09448"
           height="1052.3622" />
      </g>
    </g>
    <path
       id="path8627"
       d="m -401.48763,66.525985 0,-12.497188 7.82789,0 0,2.114122 -5.69628,0 0,2.770522 5.3002,0 0,2.105598 -5.3002,0 0,3.401348 5.89792,0 0,2.105598 -8.02953,0 z"
       style="font-style:normal;font-weight:normal;font-size:16.04636002px;font-family:'Bitstream Vera Sans';fill:#ffffff;fill-opacity:1;stroke:none;stroke-width:1px;stroke-linecap:butt;stroke-linejoin:miter;stroke-opacity:1"
       inkscape:connector-curvature="0" />
    <path
       id="path8629"
       d="m -363.54981,67.395294 0,-6.186623 19.72676,-22.505422 c 0.76136,-0.883773 1.25741,-1.693925 1.48816,-2.430459 0.2307,-0.736471 0.34606,-1.45193 0.34608,-2.146379 -2e-5,-1.599228 -0.62297,-3.088015 -1.86885,-4.466363 -1.24592,-1.378274 -2.94173,-2.067429 -5.08743,-2.067469 -1.96115,4e-5 -3.63965,0.594502 -5.03551,1.783388 -1.39588,1.188963 -2.17457,2.814529 -2.33606,4.876701 l -7.23315,0 c 0.0231,-3.724563 1.41894,-6.865218 4.18761,-9.421974 2.76866,-2.556673 6.05645,-3.835029 9.86338,-3.835076 4.19913,4.7e-5 7.70033,1.288925 10.50364,3.86664 2.80324,2.5778 4.20488,5.686891 4.20491,9.327282 -3e-5,3.114384 -1.00367,5.807877 -3.01093,8.080487 l -16.23131,18.559871 19.24224,0 0,6.565396 -28.75954,0 z m 55.89248,-13.225486 0,-19.538366 c -2e-5,-2.209474 -0.65181,-3.934993 -1.95537,-5.176563 -1.3036,-1.241494 -3.01671,-1.86226 -5.13933,-1.8623 -2.14574,4e-5 -3.86462,0.620806 -5.15665,1.8623 -1.29206,1.24157 -1.93808,2.967089 -1.93807,5.176563 l 0,19.538366 c -1e-5,2.230563 0.64601,3.961343 1.93807,5.192345 1.29203,1.231019 3.01091,1.846524 5.15665,1.846518 2.12262,6e-6 3.83573,-0.615499 5.13933,-1.846518 1.30356,-1.231002 1.95535,-2.961782 1.95537,-5.192345 l 0,0 z m -21.42256,0.378773 0,-20.295913 c -1e-5,-4.229593 1.45354,-7.496505 4.36065,-9.800748 2.90709,-2.304156 6.22949,-3.456255 9.96721,-3.456302 3.7146,4.7e-5 7.03123,1.152146 9.94989,3.456302 2.91861,2.304243 4.37793,5.571155 4.37796,9.800748 l 0,20.295913 c -3e-5,4.22964 -1.45935,7.491291 -4.37796,9.784966 -2.91866,2.293681 -6.23529,3.44052 -9.94989,3.44052 -3.73772,0 -7.06012,-1.146839 -9.96721,-3.44052 -2.90711,-2.293675 -4.36066,-5.555326 -4.36065,-9.784966 l 0,0 z m 55.47717,-0.378773 0,-19.538366 c -2e-5,-2.209474 -0.65181,-3.934993 -1.95537,-5.176563 -1.30359,-1.241494 -3.0167,-1.86226 -5.13933,-1.8623 -2.14573,4e-5 -3.86461,0.620806 -5.15665,1.8623 -1.29205,1.24157 -1.93807,2.967089 -1.93806,5.176563 l 0,19.538366 c -1e-5,2.230563 0.64601,3.961343 1.93806,5.192345 1.29204,1.231019 3.01092,1.846524 5.15665,1.846518 2.12263,6e-6 3.83574,-0.615499 5.13933,-1.846518 1.30356,-1.231002 1.95535,-2.961782 1.95537,-5.192345 l 0,0 z m -21.42256,0.378773 0,-20.295913 c -10e-6,-4.229593 1.45355,-7.496505 4.36066,-9.800748 2.90708,-2.304156 6.22948,-3.456255 9.9672,-3.456302 3.71461,4.7e-5 7.03124,1.152146 9.9499,3.456302 2.9186,2.304243 4.37793,5.571155 4.37796,9.800748 l 0,20.295913 c -3e-5,4.22964 -1.45936,7.491291 -4.37796,9.784966 -2.91866,2.293681 -6.23529,3.44052 -9.9499,3.44052 -3.73772,0 -7.06012,-1.146839 -9.9672,-3.44052 -2.90711,-2.293675 -4.36067,-5.555326 -4.36066,-9.784966 l 0,0 z m 41.14932,-20.359041 c -1e-5,2.167453 0.74408,3.808801 2.23224,4.924047 1.48815,1.115303 3.15511,1.67294 5.00091,1.672913 1.84576,2.7e-5 3.51273,-0.55761 5.00091,-1.672913 1.48813,-1.115246 2.23221,-2.756594 2.23224,-4.924047 -3e-5,-2.146344 -0.74411,-3.782431 -2.23224,-4.908266 -1.48818,-1.125757 -3.15515,-1.688655 -5.00091,-1.688695 -1.8458,4e-5 -3.51276,0.562938 -5.00091,1.688695 -1.48816,1.125835 -2.23225,2.761922 -2.23224,4.908266 l 0,0 z m -8.13296,19.790882 c 0,-4.482127 1.98422,-7.933166 5.95264,-10.353125 -1.4997,-1.220465 -2.71676,-2.572473 -3.65118,-4.056027 -0.93443,-1.483497 -1.40164,-3.23532 -1.40164,-5.255473 0,-3.70352 1.3901,-6.849436 4.17031,-9.437757 2.78019,-2.588236 6.21218,-3.882375 10.29598,-3.882422 4.08376,4.7e-5 7.51575,1.294186 10.29598,3.882422 2.78018,2.588321 4.17028,5.734237 4.17031,9.437757 -3e-5,2.020153 -0.47301,3.771976 -1.41894,5.255473 -0.946,1.483554 -2.14575,2.835562 -3.59928,4.056027 3.94533,2.441002 5.918,5.89204 5.91804,10.353125 -4e-5,4.082339 -1.51703,7.40186 -4.551,9.95857 -3.03402,2.556717 -6.63906,3.835075 -10.81511,3.835075 -4.19916,0 -7.80996,-1.278358 -10.83242,-3.835075 -3.02246,-2.55671 -4.53369,-5.876231 -4.53369,-9.95857 l 0,0 z m 7.23315,-0.06313 c -1e-5,2.104305 0.81328,3.845607 2.43989,5.223909 1.62658,1.37832 3.52426,2.067475 5.69307,2.067469 2.1457,6e-6 4.04338,-0.689149 5.69307,-2.067469 1.64965,-1.378302 2.47447,-3.119604 2.4745,-5.223909 -3e-5,-2.104278 -0.82485,-3.85084 -2.4745,-5.239691 -1.64969,-1.388814 -3.54737,-2.08323 -5.69307,-2.083251 -2.16881,2.1e-5 -4.06649,0.694437 -5.69307,2.083251 -1.62661,1.388851 -2.4399,3.135413 -2.43989,5.239691 l 0,0 z m 44.47172,13.478001 0,-5.80785 22.91072,-33.994865 -21.97629,0 0,-6.186623 31.32055,0 0,5.23969 -22.97994,34.184252 22.97994,0 0,6.565396 -32.25498,0 z m 56.23857,-18.717692 0,-6.596961 17.92712,0 0,9.374629 c -4e-5,4.566328 -1.74199,8.427703 -5.22585,11.584136 -3.48394,3.156442 -7.74077,4.734661 -12.77048,4.734661 -3.96845,0 -7.29661,-0.868021 -9.98452,-2.604063 -2.68793,-1.736039 -4.62022,-3.614119 -5.79689,-5.634247 -0.83061,-1.346738 -1.40741,-2.819742 -1.73042,-4.419016 -0.32302,-1.59925 -0.48452,-5.166024 -0.48452,-10.700334 0,-5.534264 0.1615,-9.101038 0.48452,-10.700334 0.32301,-1.599228 0.89981,-3.072232 1.73042,-4.419016 1.17667,-1.999039 3.10896,-3.882381 5.79689,-5.650029 2.68791,-1.767561 6.01607,-2.651363 9.98452,-2.65141 4.77592,4.7e-5 8.72704,1.341533 11.85336,4.024462 3.12624,2.683014 5.08161,5.886798 5.86611,9.611362 l -8.06375,0 c -0.62298,-1.767573 -1.78236,-3.314228 -3.47814,-4.639968 -1.69583,-1.325667 -3.75503,-1.988518 -6.17758,-1.988557 -1.79966,3.9e-5 -3.35703,0.336725 -4.67214,1.01006 -1.31513,0.673412 -2.35338,1.452 -3.11475,2.335766 -0.99211,1.17844 -1.66697,2.472579 -2.02458,3.882422 -0.35763,1.409907 -0.53645,4.471652 -0.53644,9.185242 -1e-5,4.734679 0.17881,7.806945 0.53644,9.216806 0.35761,1.40989 1.03247,2.682986 2.02458,3.819294 0.76137,0.925898 1.79962,1.720268 3.11475,2.383112 1.31511,0.66286 2.87248,0.994285 4.67214,0.994279 2.90707,6e-6 5.35849,-0.904839 7.35427,-2.714539 1.99571,-1.809681 2.99359,-4.166488 2.99362,-7.070427 l 0,-2.36733 -10.27868,0 z m 23.77594,18.717692 0,-5.80785 22.91073,-33.994865 -21.9763,0 0,-6.186623 31.320547,0 0,5.23969 -22.979937,34.184252 22.979937,0 0,6.565396 -32.254977,0 z"
       style="font-style:normal;font-weight:normal;font-size:67.68917084px;font-family:'Bitstream Vera Sans';fill:#000000;fill-opacity:1;stroke:none;stroke-width:1px;stroke-linecap:butt;stroke-linejoin:miter;stroke-opacity:1"
       inkscape:connector-curvature="0" />
    <rect
       ry="5.3568945"
       y="10.14367"
       x="-413.00565"
       height="69.192917"
       width="335.62152"
       id="rect8631"
       style="fill:none;fill-opacity:1;stroke:#000000;stroke-width:3.09279561;stroke-miterlimit:4;stroke-dasharray:none;stroke-opacity:1" />
    <g
       transform="matrix(1.0420498,0,0,1.0420498,-435.87334,78.038374)"
       id="g8684">
      <circle
         style="opacity:1;fill:#290e06;fill-opacity:1;fill-rule:nonzero;stroke:none;stroke-width:5.43196535;stroke-linecap:round;stroke-linejoin:round;stroke-miterlimit:4;stroke-dasharray:none;stroke-dashoffset:53;stroke-opacity:1"
         id="circle8686"
         cx="191.88326"
         cy="234.31929"
         r="84.971458" />
      <path
         d="m 109.71034,234.31929 6.78571,-6.78571 6.78572,6.78571 -6.78572,6.78572 z m 150.68233,2e-5 6.78572,-6.78572 6.78571,6.78572 -6.78571,6.78571 z m -75.29509,-75.39944 6.78572,-6.78572 6.7857,6.78572 -6.7857,6.78571 z m -4e-5,150.73273 6.78572,-6.78571 6.7857,6.78571 -6.7857,6.78571 z m 6.78575,-163.02079 c -48.39627,0 -87.68751,39.29124 -87.68751,87.68751 0,48.39625 39.29124,87.6875 87.68751,87.6875 48.39625,-2e-5 87.68749,-39.29125 87.68749,-87.6875 10e-6,-48.39627 -39.29124,-87.68752 -87.68749,-87.68751 z m 0,5.43164 c 45.46061,0 82.25586,36.79525 82.25585,82.25587 10e-6,45.4606 -36.79524,82.25585 -82.25585,82.25585 -45.46061,0 -82.25586,-36.79525 -82.25586,-82.25585 0,-45.46063 36.79525,-82.25587 82.25586,-82.25587 z m 1.60707,13.74103 c -8.28441,10e-6 -16.5652,3.00088 -23.06641,8.99023 -0.5876,-0.0303 -1.1785,-0.0469 -1.77349,-0.0469 -18.3115,-2e-5 -33.28721,14.52231 -34.03121,32.6543 -0.43726,0.39442 -0.86801,0.80155 -1.2891,1.22264 -12.9473,12.94734 -13.2672,33.80296 -0.9746,47.15038 -0.031,0.58952 -0.047,1.18231 -0.047,1.7793 -1e-5,18.31215 14.52529,33.28817 32.65819,34.03124 0.39443,0.43728 0.79964,0.86795 1.22074,1.28904 12.9486,12.94864 33.80699,13.26897 47.15429,0.97265 0.5883,0.0304 1.1797,0.0469 1.77539,0.0469 18.31221,2e-5 33.28641,-14.5234 34.02931,-32.65624 0.43727,-0.39442 0.86803,-0.79959 1.28912,-1.22068 12.9479,-12.9479 13.2689,-33.80497 0.97461,-47.15233 0.03,-0.58889 0.047,-1.18103 0.047,-1.77735 0,-18.31022 -14.5221,-33.28338 -32.65241,-34.02929 -0.395,-0.43801 -0.8029,-0.86927 -1.22459,-1.29102 -6.6416,-6.64159 -15.366,-9.96289 -24.08979,-9.96289 z m 0,4.96875 c 6.57559,0 13.14768,2.22849 18.51359,6.67773 -6.8529,1.09294 -13.0254,4.23769 -17.8769,8.78125 -4.43739,-5.00061 -10.31519,-8.69483 -16.98239,-10.41211 4.92079,-3.36001 10.63129,-5.04686 16.3457,-5.04687 z m -27.59381,9.10547 c -4.0727,5.61863 -6.214,12.20822 -6.43159,18.85156 -0.68191,-0.0407 -1.3641,-0.0684 -2.0469,-0.0684 -6.00081,-2e-5 -11.9996,1.57222 -17.3223,4.71484 2.37299,-12.59202 12.8303,-22.28491 25.80079,-23.49804 z m 6.3945,0.10156 c 7.36541,0.91636 13.8638,4.57197 18.44731,9.92383 -4.54361,5.70476 -7.29691,12.89247 -7.40431,20.71094 -0.5805,-0.67984 -1.1834,-1.34752 -1.8262,-1.99024 -4.8548,-4.85485 -10.8229,-7.92816 -17.0898,-9.23437 0.11151,-6.98805 2.7357,-13.93869 7.873,-19.41016 z m 44.16409,2.06445 c 4.55901,5.85621 6.5672,13.03537 6.02341,20.06055 -7.24641,0.82164 -14.2751,3.95592 -19.8789,9.4082 0.07,-0.89167 0.1172,-1.7898 0.11719,-2.69922 1e-5,-6.86528 -2.0475,-13.25888 -5.55469,-18.61328 5.02009,-4.86181 11.7916,-7.92028 19.29299,-8.15625 z m 6.37501,0.49024 c 12.59119,2.37417 22.28369,12.83082 23.4961,25.80078 -5.6183,-4.07346 -12.208,-6.21359 -18.8516,-6.43164 0.39839,-6.67301 -1.1453,-13.44081 -4.6445,-19.36914 z m -29.07229,11.61328 c 2.51389,4.30285 3.95899,9.31108 3.959,14.66601 -1e-5,6.3283 -2.01541,12.1727 -5.43361,16.93946 -2.51429,-4.30316 -3.9609,-9.31055 -3.96089,-14.66602 -1e-5,-6.32855 2.01709,-12.17296 5.4355,-16.93945 z m -36.33981,9.48242 c 0.7498,0 1.50011,0.0359 2.248,0.0937 0.8216,7.24756 3.9581,14.27636 9.41221,19.88086 -0.89231,-0.0704 -1.7911,-0.11719 -2.70121,-0.11719 -6.8647,2e-5 -13.2569,2.04811 -18.6113,5.55469 -4.863,-5.02031 -7.9237,-11.7913 -8.1602,-19.29297 5.23241,-4.07431 11.52,-6.11915 17.81251,-6.11914 z m 7.38481,0.95898 c 4.82039,1.26507 9.38349,3.78394 13.1699,7.57032 4.47479,4.47487 7.1815,10.03259 8.1347,15.82031 -4.82091,-1.2649 -9.38491,-3.78339 -13.1718,-7.57031 -4.47461,-4.47454 -7.1794,-10.03305 -8.1328,-15.82032 z m 62.00969,2.26758 c 6.9886,0.11139 13.9404,2.73489 19.41209,7.87305 -0.91689,7.3651 -4.5752,13.86018 -9.9277,18.44334 -5.7047,-4.54273 -12.8913,-7.29542 -20.709,-7.40232 0.68061,-0.58105 1.3488,-1.1828 1.99221,-1.82618 4.8543,-4.85424 7.92609,-10.82209 9.2324,-17.08789 z m -5.19921,0.38282 c -1.26509,4.82013 -3.78389,9.38356 -7.5703,13.16992 -4.4743,4.47431 -10.0314,7.17922 -15.81838,8.13281 1.26519,-4.81984 3.78219,-9.38181 7.56838,-13.16797 4.47441,-4.47438 10.033,-7.1812 15.8203,-8.13476 z m -86.59958,6.96093 c 1.09339,6.85249 4.23759,13.02545 8.78119,17.87695 -4.99999,4.43655 -8.69609,10.31283 -10.414,16.97851 -7.2233,-10.5817 -6.6803,-24.82741 1.63281,-34.85546 z m 115.37108,5.38282 c 7.22461,10.58187 6.6827,24.82876 -1.6309,34.8574 -1.0932,-6.85297 -4.2394,-13.02528 -8.7832,-17.87694 5.00091,-4.43703 8.6963,-10.31369 10.4141,-16.98046 z m -84.00779,8.90429 c 6.3287,-1e-5 12.17291,2.01696 16.9394,5.43553 -4.3028,2.51415 -9.31109,3.95898 -14.666,3.959 -6.32769,0 -12.17099,-2.01756 -16.9375,-5.43555 4.3028,-2.51331 9.30981,-3.95897 14.6641,-3.95898 z m 20.709,1.03515 9.5957,0 0,9.5957 -9.5957,1e-5 0,-9.59571 z m 28.0312,1.23633 c 6.3276,-1e-5 12.1714,2.01578 16.93749,5.4336 -4.30329,2.51414 -9.3107,3.96094 -14.66599,3.96093 -6.3282,-1e-5 -12.1712,-2.01746 -16.9375,-5.43554 4.30309,-2.51413 9.31109,-3.95899 14.666,-3.95899 z m -67.6484,4.70898 c 5.70481,4.54296 12.8915,7.295 20.70901,7.40233 -0.67981,0.58053 -1.34761,1.18346 -1.99031,1.82618 -4.8543,4.85428 -7.9261,10.82205 -9.2324,17.08788 -6.9883,-0.11137 -13.9405,-2.73555 -19.41209,-7.87303 0.91689,-7.36476 4.5737,-13.86024 9.92579,-18.44336 z m 88.53319,4.12891 c 4.8622,5.01989 7.92131,11.7919 8.1582,19.29296 -5.8561,4.56 -13.035,6.57066 -20.0606,6.02735 -0.8213,-7.24766 -3.9562,-14.27619 -9.41009,-19.88086 0.89159,0.0703 1.7898,0.11718 2.6992,0.11718 6.8656,2e-5 13.25839,-2.04927 18.61329,-5.55663 z m -50.45899,0.49999 c -1.26509,4.82013 -3.78399,9.38357 -7.57029,13.16993 -4.47441,4.47433 -10.03141,7.17922 -15.8184,8.13281 1.2652,-4.81984 3.7822,-9.38181 7.56839,-13.16797 4.4748,-4.47488 10.0329,-7.18148 15.8203,-8.13477 z m 12.11721,0.56446 c 4.82038,1.26507 9.38348,3.78393 13.16988,7.57031 4.4749,4.47486 7.1815,10.0326 8.13481,15.82031 -4.82101,-1.26489 -9.38501,-3.7834 -13.1719,-7.57031 -4.47451,-4.47455 -7.1793,-10.03305 -8.13279,-15.82031 z m -6.1758,2.22851 c 2.51329,4.30253 3.95899,9.30973 3.95899,14.66406 0,6.32832 -2.0154,12.17269 -5.4336,16.93946 -2.5145,-4.3031 -3.9609,-9.31065 -3.9609,-14.66602 0,-6.32776 2.01751,-12.17098 5.43551,-16.9375 z m -10.3184,14.23632 c -0.07,0.89231 -0.11711,1.7911 -0.1171,2.70118 -1e-5,6.86596 2.04849,13.25854 5.55659,18.61328 -5.0193,4.86198 -11.7907,7.92127 -19.29099,8.15821 -4.5604,-5.85667 -6.5712,-13.03628 -6.02741,-20.0625 7.2472,-0.82123 14.27441,-3.95699 19.87891,-9.41017 z m 19.26568,0.89845 c 0.581,0.68056 1.1828,1.34881 1.82611,1.99218 4.85479,4.85475 10.82339,7.92633 17.08989,9.23243 -0.1114,6.98741 -2.7348,13.93882 -7.87109,19.41014 -7.3658,-0.9164 -13.86329,-4.5716 -18.4473,-9.92381 4.5431,-5.70536 7.2955,-12.8925 7.40239,-20.71094 z m -62.99029,2.28125 c 5.61851,4.07262 12.2084,6.21389 18.8516,6.43164 -0.3983,6.6737 1.14641,13.44235 4.6465,19.37109 -12.59299,-2.37315 -22.2855,-12.83134 -23.4981,-25.80273 z m 106.22849,4.95898 c -2.3731,12.59135 -12.8289,22.28299 -25.79879,23.4961 4.0721,-5.61822 6.21199,-12.20695 6.42969,-18.84961 6.67321,0.39797 13.4409,-1.1467 19.3691,-4.64649 z m -54.02929,17.14453 c 4.4373,4.9999 10.31409,8.69471 16.98049,10.41211 -10.58188,7.22489 -24.82869,6.68289 -34.85738,-1.63086 6.85229,-1.09335 13.02579,-4.23758 17.87689,-8.78125 z"
         style="opacity:1;fill:url(#radialGradient8690);fill-opacity:1;fill-rule:evenodd;stroke:none;stroke-width:0;stroke-miterlimit:4;stroke-dasharray:none;stroke-opacity:1"
         id="path8688"
         inkscape:connector-curvature="0" />
    </g>
    <g
       id="g8698"
       transform="translate(5.6415546,-2.6985356)">
      <rect
         ry="7.0496192"
         y="10.371633"
         x="11.297398"
         height="91.057182"
         width="335.17117"
         id="rect2221"
         style="fill:#ffffff;fill-opacity:1;stroke:#000000;stroke-width:3.54556894;stroke-miterlimit:4;stroke-dasharray:none;stroke-opacity:1" />
      <path
         inkscape:connector-curvature="0"
         sodipodi:nodetypes="ccccccc"
         id="path3214"
         d="m 43.051188,10.660466 0,90.728174 -26.505747,0 c -3.120827,-0.0155 -4.705926,-2.054737 -5.137881,-5.613529 l 0.09389,-78.135554 c 0.378405,-4.154082 1.975993,-6.701574 5.043986,-7.311428 l 26.505747,0.332337 z"
         style="fill:#003399;fill-opacity:1;fill-rule:evenodd;stroke:#003399;stroke-width:1.14639616px;stroke-linecap:butt;stroke-linejoin:miter;stroke-opacity:1" />
      <rect
         ry="7.0496192"
         y="10.371456"
         x="11.297249"
         height="91.057182"
         width="335.17117"
         id="rect3216"
         style="fill:none;fill-opacity:1;stroke:#000000;stroke-width:3.54556894;stroke-miterlimit:4;stroke-dasharray:none;stroke-opacity:1" />
      <g
         transform="matrix(0.12827382,0,0,0.12827382,4.1260378,3.211877)"
         id="g8599">
        <circle
           style="opacity:1;fill:#290e06;fill-opacity:1;fill-rule:nonzero;stroke:none;stroke-width:5.43196535;stroke-linecap:round;stroke-linejoin:round;stroke-miterlimit:4;stroke-dasharray:none;stroke-dashoffset:53;stroke-opacity:1"
           id="circle11597"
           cx="191.88326"
           cy="234.31929"
           r="84.971458" />
        <path
           d="m 109.71034,234.31929 6.78571,-6.78571 6.78572,6.78571 -6.78572,6.78572 z m 150.68233,2e-5 6.78572,-6.78572 6.78571,6.78572 -6.78571,6.78571 z m -75.29509,-75.39944 6.78572,-6.78572 6.7857,6.78572 -6.7857,6.78571 z m -4e-5,150.73273 6.78572,-6.78571 6.7857,6.78571 -6.7857,6.78571 z m 6.78575,-163.02079 c -48.39627,0 -87.68751,39.29124 -87.68751,87.68751 0,48.39625 39.29124,87.6875 87.68751,87.6875 48.39625,-2e-5 87.68749,-39.29125 87.68749,-87.6875 10e-6,-48.39627 -39.29124,-87.68752 -87.68749,-87.68751 z m 0,5.43164 c 45.46061,0 82.25586,36.79525 82.25585,82.25587 10e-6,45.4606 -36.79524,82.25585 -82.25585,82.25585 -45.46061,0 -82.25586,-36.79525 -82.25586,-82.25585 0,-45.46063 36.79525,-82.25587 82.25586,-82.25587 z m 1.60707,13.74103 c -8.28441,10e-6 -16.5652,3.00088 -23.06641,8.99023 -0.5876,-0.0303 -1.1785,-0.0469 -1.77349,-0.0469 -18.3115,-2e-5 -33.28721,14.52231 -34.03121,32.6543 -0.43726,0.39442 -0.86801,0.80155 -1.2891,1.22264 -12.9473,12.94734 -13.2672,33.80296 -0.9746,47.15038 -0.031,0.58952 -0.047,1.18231 -0.047,1.7793 -1e-5,18.31215 14.52529,33.28817 32.65819,34.03124 0.39443,0.43728 0.79964,0.86795 1.22074,1.28904 12.9486,12.94864 33.80699,13.26897 47.15429,0.97265 0.5883,0.0304 1.1797,0.0469 1.77539,0.0469 18.31221,2e-5 33.28641,-14.5234 34.02931,-32.65624 0.43727,-0.39442 0.86803,-0.79959 1.28912,-1.22068 12.9479,-12.9479 13.2689,-33.80497 0.97461,-47.15233 0.03,-0.58889 0.047,-1.18103 0.047,-1.77735 0,-18.31022 -14.5221,-33.28338 -32.65241,-34.02929 -0.395,-0.43801 -0.8029,-0.86927 -1.22459,-1.29102 -6.6416,-6.64159 -15.366,-9.96289 -24.08979,-9.96289 z m 0,4.96875 c 6.57559,0 13.14768,2.22849 18.51359,6.67773 -6.8529,1.09294 -13.0254,4.23769 -17.8769,8.78125 -4.43739,-5.00061 -10.31519,-8.69483 -16.98239,-10.41211 4.92079,-3.36001 10.63129,-5.04686 16.3457,-5.04687 z m -27.59381,9.10547 c -4.0727,5.61863 -6.214,12.20822 -6.43159,18.85156 -0.68191,-0.0407 -1.3641,-0.0684 -2.0469,-0.0684 -6.00081,-2e-5 -11.9996,1.57222 -17.3223,4.71484 2.37299,-12.59202 12.8303,-22.28491 25.80079,-23.49804 z m 6.3945,0.10156 c 7.36541,0.91636 13.8638,4.57197 18.44731,9.92383 -4.54361,5.70476 -7.29691,12.89247 -7.40431,20.71094 -0.5805,-0.67984 -1.1834,-1.34752 -1.8262,-1.99024 -4.8548,-4.85485 -10.8229,-7.92816 -17.0898,-9.23437 0.11151,-6.98805 2.7357,-13.93869 7.873,-19.41016 z m 44.16409,2.06445 c 4.55901,5.85621 6.5672,13.03537 6.02341,20.06055 -7.24641,0.82164 -14.2751,3.95592 -19.8789,9.4082 0.07,-0.89167 0.1172,-1.7898 0.11719,-2.69922 1e-5,-6.86528 -2.0475,-13.25888 -5.55469,-18.61328 5.02009,-4.86181 11.7916,-7.92028 19.29299,-8.15625 z m 6.37501,0.49024 c 12.59119,2.37417 22.28369,12.83082 23.4961,25.80078 -5.6183,-4.07346 -12.208,-6.21359 -18.8516,-6.43164 0.39839,-6.67301 -1.1453,-13.44081 -4.6445,-19.36914 z m -29.07229,11.61328 c 2.51389,4.30285 3.95899,9.31108 3.959,14.66601 -1e-5,6.3283 -2.01541,12.1727 -5.43361,16.93946 -2.51429,-4.30316 -3.9609,-9.31055 -3.96089,-14.66602 -1e-5,-6.32855 2.01709,-12.17296 5.4355,-16.93945 z m -36.33981,9.48242 c 0.7498,0 1.50011,0.0359 2.248,0.0937 0.8216,7.24756 3.9581,14.27636 9.41221,19.88086 -0.89231,-0.0704 -1.7911,-0.11719 -2.70121,-0.11719 -6.8647,2e-5 -13.2569,2.04811 -18.6113,5.55469 -4.863,-5.02031 -7.9237,-11.7913 -8.1602,-19.29297 5.23241,-4.07431 11.52,-6.11915 17.81251,-6.11914 z m 7.38481,0.95898 c 4.82039,1.26507 9.38349,3.78394 13.1699,7.57032 4.47479,4.47487 7.1815,10.03259 8.1347,15.82031 -4.82091,-1.2649 -9.38491,-3.78339 -13.1718,-7.57031 -4.47461,-4.47454 -7.1794,-10.03305 -8.1328,-15.82032 z m 62.00969,2.26758 c 6.9886,0.11139 13.9404,2.73489 19.41209,7.87305 -0.91689,7.3651 -4.5752,13.86018 -9.9277,18.44334 -5.7047,-4.54273 -12.8913,-7.29542 -20.709,-7.40232 0.68061,-0.58105 1.3488,-1.1828 1.99221,-1.82618 4.8543,-4.85424 7.92609,-10.82209 9.2324,-17.08789 z m -5.19921,0.38282 c -1.26509,4.82013 -3.78389,9.38356 -7.5703,13.16992 -4.4743,4.47431 -10.0314,7.17922 -15.81838,8.13281 1.26519,-4.81984 3.78219,-9.38181 7.56838,-13.16797 4.47441,-4.47438 10.033,-7.1812 15.8203,-8.13476 z m -86.59958,6.96093 c 1.09339,6.85249 4.23759,13.02545 8.78119,17.87695 -4.99999,4.43655 -8.69609,10.31283 -10.414,16.97851 -7.2233,-10.5817 -6.6803,-24.82741 1.63281,-34.85546 z m 115.37108,5.38282 c 7.22461,10.58187 6.6827,24.82876 -1.6309,34.8574 -1.0932,-6.85297 -4.2394,-13.02528 -8.7832,-17.87694 5.00091,-4.43703 8.6963,-10.31369 10.4141,-16.98046 z m -84.00779,8.90429 c 6.3287,-1e-5 12.17291,2.01696 16.9394,5.43553 -4.3028,2.51415 -9.31109,3.95898 -14.666,3.959 -6.32769,0 -12.17099,-2.01756 -16.9375,-5.43555 4.3028,-2.51331 9.30981,-3.95897 14.6641,-3.95898 z m 20.709,1.03515 9.5957,0 0,9.5957 -9.5957,1e-5 0,-9.59571 z m 28.0312,1.23633 c 6.3276,-1e-5 12.1714,2.01578 16.93749,5.4336 -4.30329,2.51414 -9.3107,3.96094 -14.66599,3.96093 -6.3282,-1e-5 -12.1712,-2.01746 -16.9375,-5.43554 4.30309,-2.51413 9.31109,-3.95899 14.666,-3.95899 z m -67.6484,4.70898 c 5.70481,4.54296 12.8915,7.295 20.70901,7.40233 -0.67981,0.58053 -1.34761,1.18346 -1.99031,1.82618 -4.8543,4.85428 -7.9261,10.82205 -9.2324,17.08788 -6.9883,-0.11137 -13.9405,-2.73555 -19.41209,-7.87303 0.91689,-7.36476 4.5737,-13.86024 9.92579,-18.44336 z m 88.53319,4.12891 c 4.8622,5.01989 7.92131,11.7919 8.1582,19.29296 -5.8561,4.56 -13.035,6.57066 -20.0606,6.02735 -0.8213,-7.24766 -3.9562,-14.27619 -9.41009,-19.88086 0.89159,0.0703 1.7898,0.11718 2.6992,0.11718 6.8656,2e-5 13.25839,-2.04927 18.61329,-5.55663 z m -50.45899,0.49999 c -1.26509,4.82013 -3.78399,9.38357 -7.57029,13.16993 -4.47441,4.47433 -10.03141,7.17922 -15.8184,8.13281 1.2652,-4.81984 3.7822,-9.38181 7.56839,-13.16797 4.4748,-4.47488 10.0329,-7.18148 15.8203,-8.13477 z m 12.11721,0.56446 c 4.82038,1.26507 9.38348,3.78393 13.16988,7.57031 4.4749,4.47486 7.1815,10.0326 8.13481,15.82031 -4.82101,-1.26489 -9.38501,-3.7834 -13.1719,-7.57031 -4.47451,-4.47455 -7.1793,-10.03305 -8.13279,-15.82031 z m -6.1758,2.22851 c 2.51329,4.30253 3.95899,9.30973 3.95899,14.66406 0,6.32832 -2.0154,12.17269 -5.4336,16.93946 -2.5145,-4.3031 -3.9609,-9.31065 -3.9609,-14.66602 0,-6.32776 2.01751,-12.17098 5.43551,-16.9375 z m -10.3184,14.23632 c -0.07,0.89231 -0.11711,1.7911 -0.1171,2.70118 -1e-5,6.86596 2.04849,13.25854 5.55659,18.61328 -5.0193,4.86198 -11.7907,7.92127 -19.29099,8.15821 -4.5604,-5.85667 -6.5712,-13.03628 -6.02741,-20.0625 7.2472,-0.82123 14.27441,-3.95699 19.87891,-9.41017 z m 19.26568,0.89845 c 0.581,0.68056 1.1828,1.34881 1.82611,1.99218 4.85479,4.85475 10.82339,7.92633 17.08989,9.23243 -0.1114,6.98741 -2.7348,13.93882 -7.87109,19.41014 -7.3658,-0.9164 -13.86329,-4.5716 -18.4473,-9.92381 4.5431,-5.70536 7.2955,-12.8925 7.40239,-20.71094 z m -62.99029,2.28125 c 5.61851,4.07262 12.2084,6.21389 18.8516,6.43164 -0.3983,6.6737 1.14641,13.44235 4.6465,19.37109 -12.59299,-2.37315 -22.2855,-12.83134 -23.4981,-25.80273 z m 106.22849,4.95898 c -2.3731,12.59135 -12.8289,22.28299 -25.79879,23.4961 4.0721,-5.61822 6.21199,-12.20695 6.42969,-18.84961 6.67321,0.39797 13.4409,-1.1467 19.3691,-4.64649 z m -54.02929,17.14453 c 4.4373,4.9999 10.31409,8.69471 16.98049,10.41211 -10.58188,7.22489 -24.82869,6.68289 -34.85738,-1.63086 6.85229,-1.09335 13.02579,-4.23758 17.87689,-8.78125 z"
           style="opacity:1;fill:url(#radialGradient11601);fill-opacity:1;fill-rule:evenodd;stroke:none;stroke-width:0;stroke-miterlimit:4;stroke-dasharray:none;stroke-opacity:1"
           id="path11599"
           inkscape:connector-curvature="0" />
      </g>
      <text
         sodipodi:linespacing="125%"
         id="text8657"
         y="93.568748"
         x="21.47707"
         style="font-style:normal;font-weight:normal;font-size:23.35231018px;line-height:125%;font-family:Sans;letter-spacing:0px;word-spacing:0px;fill:#ffffff;fill-opacity:1;stroke:none;stroke-width:1px;stroke-linecap:butt;stroke-linejoin:miter;stroke-opacity:1"
         xml:space="preserve"><tspan
           y="93.568748"
           x="21.47707"
           id="tspan8659"
           sodipodi:role="line">A</tspan></text>
      <text
         xml:space="preserve"
         style="font-style:normal;font-variant:normal;font-weight:normal;font-stretch:normal;font-size:22.9373188px;line-height:125%;font-family:Sans;-inkscape-font-specification:'Sans, Normal';text-align:start;letter-spacing:0px;word-spacing:0px;writing-mode:lr-tb;text-anchor:start;fill:#b06d24;fill-opacity:1;stroke:none;stroke-width:1px;stroke-linecap:butt;stroke-linejoin:miter;stroke-opacity:1"
         x="151.79477"
         y="92.320396"
         id="text8663"
         sodipodi:linespacing="125%"><tspan
           y="92.320396"
           x="151.79477"
           id="tspan8667"
           sodipodi:role="line">30350</tspan></text>
      <text
         sodipodi:linespacing="125%"
         id="text8680"
         y="63.157963"
         x="63.378254"
         style="font-style:normal;font-variant:normal;font-weight:normal;font-stretch:normal;font-size:56.56293106px;line-height:125%;font-family:Sans;-inkscape-font-specification:'Sans, Normal';text-align:start;letter-spacing:0px;word-spacing:0px;writing-mode:lr-tb;text-anchor:start;fill:#000000;fill-opacity:1;stroke:none;stroke-width:1px;stroke-linecap:butt;stroke-linejoin:miter;stroke-opacity:1"
         xml:space="preserve"><tspan
           y="63.157963"
           x="63.378254"
           id="tspan8682"
           sodipodi:role="line">REB-2013</tspan></text>
      <text
         xml:space="preserve"
         style="font-style:normal;font-variant:normal;font-weight:normal;font-stretch:normal;font-size:11.56475067px;line-height:125%;font-family:Sans;-inkscape-font-specification:'Sans, Normal';text-align:start;letter-spacing:0px;word-spacing:0px;writing-mode:lr-tb;text-anchor:start;fill:#ffffff;fill-opacity:1;stroke:none;stroke-width:1px;stroke-linecap:butt;stroke-linejoin:miter;stroke-opacity:1"
         x="18.663128"
         y="65.606789"
         id="text8692"
         sodipodi:linespacing="125%"><tspan
           y="65.606789"
           x="18.663128"
           id="tspan8696"
           sodipodi:role="line">105</tspan></text>
    </g>
  </g>
</svg>
